<svg
   
   
   
    fill="none"
    xmlns="http://www.w3.org/2000/svg"
 width="32" height="32" viewBox="0 0 32 32">
    <path
        d="M9.5 23.5C11.8333 22.5 13.3333 21.6667 14 21C15 20 12 20 12 15C12 11.6667 13.3333 10 16 10C18.6667 10 20 11.6667 20 15C20 20 17 20 18 21C18.6667 21.6667 20.1667 22.5 22.5 23.5"
        fill="#EBE6F0"
    />
    <path
        d="M9.5 23.5C11.8333 22.5 13.3333 21.6667 14 21C15 20 12 20 12 15C12 11.6667 13.3333 10 16 10C18.6667 10 20 11.6667 20 15C20 20 17 20 18 21C18.6667 21.6667 20.1667 22.5 22.5 23.5C22.5 23.5 20 26 16 26C12 26 9.5 23.5 9.5 23.5Z"
        fill="#EBE6F0"
        stroke="#777481"
        stroke-width="1.5"
        stroke-linecap="round"
        stroke-linejoin="round"
    />
    <path
        d="M16 26C21.5228 26 26 21.5228 26 16C26 10.4772 21.5228 6 16 6C10.4772 6 6 10.4772 6 16C6 21.5228 10.4772 26 16 26Z"
        stroke="#777481"
        stroke-width="1.5"
        stroke-linecap="round"
        stroke-linejoin="round"
    />
</svg>
