<svg
   
   
   
    fill="none"
    xmlns="http://www.w3.org/2000/svg"
 width="32" height="32" viewBox="0 0 32 32">
  <g transform="translate(2.909091 0.000000) scale(1.454545)">

    <path
        d="M17 4.99951C17 3.89494 16.1046 2.99951 15 2.99951H14C13.4477 2.99951 13 3.44723 13 3.99951C13 4.5518 12.5523 4.99951 12 4.99951H6C5.44772 4.99951 5 4.5518 5 3.99951C5 3.44723 4.55228 2.99951 4 2.99951H3C1.89543 2.99951 1 3.89494 1 4.99951V18.9995C1 20.1041 1.89543 20.9995 3 20.9995H15C16.1046 20.9995 17 20.1041 17 18.9995V4.99951Z"
        stroke="#777481"
        stroke-width="1.5"
        stroke-linecap="round"
        stroke-linejoin="round"
    />
    <path
        d="M5 1.99951C5 1.44723 5.44772 0.999512 6 0.999512H12C12.5523 0.999512 13 1.44723 13 1.99951V3.99951C13 4.5518 12.5523 4.99951 12 4.99951H6C5.44772 4.99951 5 4.5518 5 3.99951V1.99951Z"
        fill="#EBE6F0"
        stroke="#777481"
        stroke-width="1.5"
    />
    <path
        d="M5 8.99951H13M5 11.9995H9"
        stroke="#777481"
        stroke-width="1.5"
        stroke-linecap="round"
        stroke-linejoin="round"
    />

  </g>
</svg>