<svg width="279" height="135" viewBox="0 0 279 135" fill="none" xmlns="http://www.w3.org/2000/svg">
<mask id="mask0_259_8907" style="mask-type:alpha" maskUnits="userSpaceOnUse" x="0" y="0" width="279" height="135">
<rect x="279" y="135" width="279" height="135" transform="rotate(-180 279 135)" fill="url(#paint0_radial_259_8907)"/>
</mask>
<g mask="url(#mask0_259_8907)">
<circle opacity="0.4" cx="133.5" cy="133.5" r="1.5" transform="rotate(-180 133.5 133.5)" fill="white"/>
<circle opacity="0.2" cx="121.5" cy="133.5" r="1.5" transform="rotate(-180 121.5 133.5)" fill="white"/>
<circle opacity="0.4" cx="109.5" cy="133.5" r="1.5" transform="rotate(-180 109.5 133.5)" fill="white"/>
<circle opacity="0.4" cx="97.5" cy="133.5" r="1.5" transform="rotate(-180 97.5 133.5)" fill="white"/>
<circle opacity="0.2" cx="85.5" cy="133.5" r="1.5" transform="rotate(-180 85.5 133.5)" fill="white"/>
<circle opacity="0.4" cx="73.5" cy="133.5" r="1.5" transform="rotate(-180 73.5 133.5)" fill="white"/>
<circle opacity="0.6" cx="61.5" cy="133.5" r="1.5" transform="rotate(-180 61.5 133.5)" fill="white"/>
<circle opacity="0.6" cx="49.5" cy="133.5" r="1.5" transform="rotate(-180 49.5 133.5)" fill="white"/>
<circle opacity="0.4" cx="37.5" cy="133.5" r="1.5" transform="rotate(-180 37.5 133.5)" fill="white"/>
<circle opacity="0.8" cx="25.5" cy="133.5" r="1.5" transform="rotate(-180 25.5 133.5)" fill="white"/>
<circle opacity="0.1" cx="13.5" cy="133.5" r="1.5" transform="rotate(-180 13.5 133.5)" fill="white"/>
<circle opacity="0.4" cx="1.5" cy="133.5" r="1.5" transform="rotate(-180 1.5 133.5)" fill="white"/>
<circle opacity="0.6" cx="133.5" cy="121.5" r="1.5" transform="rotate(-180 133.5 121.5)" fill="white"/>
<circle opacity="0.4" cx="121.5" cy="121.5" r="1.5" transform="rotate(-180 121.5 121.5)" fill="white"/>
<circle opacity="0.8" cx="109.5" cy="121.5" r="1.5" transform="rotate(-180 109.5 121.5)" fill="white"/>
<circle opacity="0.4" cx="97.5" cy="121.5" r="1.5" transform="rotate(-180 97.5 121.5)" fill="white"/>
<circle opacity="0.1" cx="85.5" cy="121.5" r="1.5" transform="rotate(-180 85.5 121.5)" fill="white"/>
<circle opacity="0.4" cx="73.5" cy="121.5" r="1.5" transform="rotate(-180 73.5 121.5)" fill="white"/>
<circle opacity="0.4" cx="61.5" cy="121.5" r="1.5" transform="rotate(-180 61.5 121.5)" fill="white"/>
<circle opacity="0.2" cx="49.5" cy="121.5" r="1.5" transform="rotate(-180 49.5 121.5)" fill="white"/>
<circle opacity="0.4" cx="37.5" cy="121.5" r="1.5" transform="rotate(-180 37.5 121.5)" fill="white"/>
<circle opacity="0.4" cx="25.5" cy="121.5" r="1.5" transform="rotate(-180 25.5 121.5)" fill="white"/>
<circle opacity="0.1" cx="13.5" cy="121.5" r="1.5" transform="rotate(-180 13.5 121.5)" fill="white"/>
<circle opacity="0.4" cx="1.5" cy="121.5" r="1.5" transform="rotate(-180 1.5 121.5)" fill="white"/>
<circle opacity="0.2" cx="133.5" cy="109.5" r="1.5" transform="rotate(-180 133.5 109.5)" fill="white"/>
<circle opacity="0.2" cx="121.5" cy="109.5" r="1.5" transform="rotate(-180 121.5 109.5)" fill="white"/>
<circle opacity="0.2" cx="109.5" cy="109.5" r="1.5" transform="rotate(-180 109.5 109.5)" fill="white"/>
<circle opacity="0.1" cx="97.5" cy="109.5" r="1.5" transform="rotate(-180 97.5 109.5)" fill="white"/>
<circle opacity="0.4" cx="85.5" cy="109.5" r="1.5" transform="rotate(-180 85.5 109.5)" fill="white"/>
<circle opacity="0.4" cx="73.5" cy="109.5" r="1.5" transform="rotate(-180 73.5 109.5)" fill="white"/>
<circle opacity="0.6" cx="61.5" cy="109.5" r="1.5" transform="rotate(-180 61.5 109.5)" fill="white"/>
<circle opacity="0.4" cx="49.5" cy="109.5" r="1.5" transform="rotate(-180 49.5 109.5)" fill="white"/>
<circle opacity="0.2" cx="37.5" cy="109.5" r="1.5" transform="rotate(-180 37.5 109.5)" fill="white"/>
<circle opacity="0.8" cx="25.5" cy="109.5" r="1.5" transform="rotate(-180 25.5 109.5)" fill="white"/>
<circle opacity="0.6" cx="13.5" cy="109.5" r="1.5" transform="rotate(-180 13.5 109.5)" fill="white"/>
<circle opacity="0.2" cx="1.5" cy="109.5" r="1.5" transform="rotate(-180 1.5 109.5)" fill="white"/>
<circle opacity="0.6" cx="133.5" cy="97.5" r="1.5" transform="rotate(-180 133.5 97.5)" fill="white"/>
<circle opacity="0.6" cx="121.5" cy="97.5" r="1.5" transform="rotate(-180 121.5 97.5)" fill="white"/>
<circle opacity="0.2" cx="109.5" cy="97.5" r="1.5" transform="rotate(-180 109.5 97.5)" fill="white"/>
<circle opacity="0.8" cx="97.5" cy="97.5" r="1.5" transform="rotate(-180 97.5 97.5)" fill="white"/>
<circle opacity="0.4" cx="85.5" cy="97.5" r="1.5" transform="rotate(-180 85.5 97.5)" fill="white"/>
<circle opacity="0.2" cx="73.5" cy="97.5" r="1.5" transform="rotate(-180 73.5 97.5)" fill="white"/>
<circle opacity="0.1" cx="61.5" cy="97.5" r="1.5" transform="rotate(-180 61.5 97.5)" fill="white"/>
<circle opacity="0.4" cx="49.5" cy="97.5" r="1.5" transform="rotate(-180 49.5 97.5)" fill="white"/>
<circle opacity="0.4" cx="37.5" cy="97.5" r="1.5" transform="rotate(-180 37.5 97.5)" fill="white"/>
<circle opacity="0.4" cx="25.5" cy="97.5" r="1.5" transform="rotate(-180 25.5 97.5)" fill="white"/>
<circle opacity="0.4" cx="13.5" cy="97.5" r="1.5" transform="rotate(-180 13.5 97.5)" fill="white"/>
<circle opacity="0.4" cx="1.5" cy="97.5" r="1.5" transform="rotate(-180 1.5 97.5)" fill="white"/>
<circle opacity="0.6" cx="133.5" cy="85.5" r="1.5" transform="rotate(-180 133.5 85.5)" fill="white"/>
<circle opacity="0.2" cx="121.5" cy="85.5" r="1.5" transform="rotate(-180 121.5 85.5)" fill="white"/>
<circle opacity="0.2" cx="109.5" cy="85.5" r="1.5" transform="rotate(-180 109.5 85.5)" fill="white"/>
<circle opacity="0.4" cx="97.5" cy="85.5" r="1.5" transform="rotate(-180 97.5 85.5)" fill="white"/>
<circle opacity="0.2" cx="85.5" cy="85.5" r="1.5" transform="rotate(-180 85.5 85.5)" fill="white"/>
<circle opacity="0.8" cx="73.5" cy="85.5" r="1.5" transform="rotate(-180 73.5 85.5)" fill="white"/>
<circle opacity="0.6" cx="61.5" cy="85.5" r="1.5" transform="rotate(-180 61.5 85.5)" fill="white"/>
<circle opacity="0.6" cx="49.5" cy="85.5" r="1.5" transform="rotate(-180 49.5 85.5)" fill="white"/>
<circle opacity="0.4" cx="37.5" cy="85.5" r="1.5" transform="rotate(-180 37.5 85.5)" fill="white"/>
<circle opacity="0.1" cx="25.5" cy="85.5" r="1.5" transform="rotate(-180 25.5 85.5)" fill="white"/>
<circle opacity="0.8" cx="13.5" cy="85.5" r="1.5" transform="rotate(-180 13.5 85.5)" fill="white"/>
<circle opacity="0.6" cx="1.5" cy="85.5" r="1.5" transform="rotate(-180 1.5 85.5)" fill="white"/>
<circle opacity="0.1" cx="133.5" cy="73.5" r="1.5" transform="rotate(-180 133.5 73.5)" fill="white"/>
<circle opacity="0.8" cx="121.5" cy="73.5" r="1.5" transform="rotate(-180 121.5 73.5)" fill="white"/>
<circle opacity="0.2" cx="109.5" cy="73.5" r="1.5" transform="rotate(-180 109.5 73.5)" fill="white"/>
<circle opacity="0.8" cx="97.5" cy="73.5" r="1.5" transform="rotate(-180 97.5 73.5)" fill="white"/>
<circle opacity="0.8" cx="85.5" cy="73.5" r="1.5" transform="rotate(-180 85.5 73.5)" fill="white"/>
<circle opacity="0.4" cx="73.5" cy="73.5" r="1.5" transform="rotate(-180 73.5 73.5)" fill="white"/>
<circle opacity="0.6" cx="61.5" cy="73.5" r="1.5" transform="rotate(-180 61.5 73.5)" fill="white"/>
<circle opacity="0.6" cx="49.5" cy="73.5" r="1.5" transform="rotate(-180 49.5 73.5)" fill="white"/>
<circle opacity="0.4" cx="37.5" cy="73.5" r="1.5" transform="rotate(-180 37.5 73.5)" fill="white"/>
<circle opacity="0.2" cx="25.5" cy="73.5" r="1.5" transform="rotate(-180 25.5 73.5)" fill="white"/>
<circle opacity="0.6" cx="13.5" cy="73.5" r="1.5" transform="rotate(-180 13.5 73.5)" fill="white"/>
<circle opacity="0.6" cx="1.5" cy="73.5" r="1.5" transform="rotate(-180 1.5 73.5)" fill="white"/>
<circle opacity="0.1" cx="133.5" cy="61.5" r="1.5" transform="rotate(-180 133.5 61.5)" fill="white"/>
<circle opacity="0.1" cx="121.5" cy="61.5" r="1.5" transform="rotate(-180 121.5 61.5)" fill="white"/>
<circle opacity="0.1" cx="109.5" cy="61.5" r="1.5" transform="rotate(-180 109.5 61.5)" fill="white"/>
<circle opacity="0.4" cx="97.5" cy="61.5" r="1.5" transform="rotate(-180 97.5 61.5)" fill="white"/>
<circle opacity="0.2" cx="85.5" cy="61.5" r="1.5" transform="rotate(-180 85.5 61.5)" fill="white"/>
<circle opacity="0.6" cx="73.5" cy="61.5" r="1.5" transform="rotate(-180 73.5 61.5)" fill="white"/>
<circle opacity="0.4" cx="61.5" cy="61.5" r="1.5" transform="rotate(-180 61.5 61.5)" fill="white"/>
<circle opacity="0.2" cx="49.5" cy="61.5" r="1.5" transform="rotate(-180 49.5 61.5)" fill="white"/>
<circle opacity="0.1" cx="37.5" cy="61.5" r="1.5" transform="rotate(-180 37.5 61.5)" fill="white"/>
<circle opacity="0.4" cx="25.5" cy="61.5" r="1.5" transform="rotate(-180 25.5 61.5)" fill="white"/>
<circle opacity="0.6" cx="13.5" cy="61.5" r="1.5" transform="rotate(-180 13.5 61.5)" fill="white"/>
<circle opacity="0.6" cx="1.5" cy="61.5" r="1.5" transform="rotate(-180 1.5 61.5)" fill="white"/>
<circle opacity="0.8" cx="133.5" cy="49.5" r="1.5" transform="rotate(-180 133.5 49.5)" fill="white"/>
<circle opacity="0.4" cx="121.5" cy="49.5" r="1.5" transform="rotate(-180 121.5 49.5)" fill="white"/>
<circle opacity="0.4" cx="109.5" cy="49.5" r="1.5" transform="rotate(-180 109.5 49.5)" fill="white"/>
<circle opacity="0.6" cx="97.5" cy="49.5" r="1.5" transform="rotate(-180 97.5 49.5)" fill="white"/>
<circle opacity="0.4" cx="85.5" cy="49.5" r="1.5" transform="rotate(-180 85.5 49.5)" fill="white"/>
<circle opacity="0.1" cx="73.5" cy="49.5" r="1.5" transform="rotate(-180 73.5 49.5)" fill="white"/>
<circle opacity="0.6" cx="61.5" cy="49.5" r="1.5" transform="rotate(-180 61.5 49.5)" fill="white"/>
<circle opacity="0.6" cx="49.5" cy="49.5" r="1.5" transform="rotate(-180 49.5 49.5)" fill="white"/>
<circle opacity="0.4" cx="37.5" cy="49.5" r="1.5" transform="rotate(-180 37.5 49.5)" fill="white"/>
<circle opacity="0.6" cx="25.5" cy="49.5" r="1.5" transform="rotate(-180 25.5 49.5)" fill="white"/>
<circle opacity="0.2" cx="13.5" cy="49.5" r="1.5" transform="rotate(-180 13.5 49.5)" fill="white"/>
<circle opacity="0.8" cx="1.5" cy="49.5" r="1.5" transform="rotate(-180 1.5 49.5)" fill="white"/>
<circle opacity="0.4" cx="133.5" cy="37.5" r="1.5" transform="rotate(-180 133.5 37.5)" fill="white"/>
<circle opacity="0.4" cx="121.5" cy="37.5" r="1.5" transform="rotate(-180 121.5 37.5)" fill="white"/>
<circle opacity="0.4" cx="109.5" cy="37.5" r="1.5" transform="rotate(-180 109.5 37.5)" fill="white"/>
<circle opacity="0.4" cx="97.5" cy="37.5" r="1.5" transform="rotate(-180 97.5 37.5)" fill="white"/>
<circle opacity="0.6" cx="85.5" cy="37.5" r="1.5" transform="rotate(-180 85.5 37.5)" fill="white"/>
<circle opacity="0.2" cx="73.5" cy="37.5" r="1.5" transform="rotate(-180 73.5 37.5)" fill="white"/>
<circle opacity="0.1" cx="61.5" cy="37.5" r="1.5" transform="rotate(-180 61.5 37.5)" fill="white"/>
<circle opacity="0.4" cx="49.5" cy="37.5" r="1.5" transform="rotate(-180 49.5 37.5)" fill="white"/>
<circle opacity="0.6" cx="37.5" cy="37.5" r="1.5" transform="rotate(-180 37.5 37.5)" fill="white"/>
<circle opacity="0.2" cx="25.5" cy="37.5" r="1.5" transform="rotate(-180 25.5 37.5)" fill="white"/>
<circle opacity="0.6" cx="13.5" cy="37.5" r="1.5" transform="rotate(-180 13.5 37.5)" fill="white"/>
<circle opacity="0.2" cx="1.5" cy="37.5" r="1.5" transform="rotate(-180 1.5 37.5)" fill="white"/>
<circle opacity="0.8" cx="133.5" cy="25.5" r="1.5" transform="rotate(-180 133.5 25.5)" fill="white"/>
<circle opacity="0.6" cx="121.5" cy="25.5" r="1.5" transform="rotate(-180 121.5 25.5)" fill="white"/>
<circle opacity="0.2" cx="109.5" cy="25.5" r="1.5" transform="rotate(-180 109.5 25.5)" fill="white"/>
<circle opacity="0.2" cx="97.5" cy="25.5" r="1.5" transform="rotate(-180 97.5 25.5)" fill="white"/>
<circle opacity="0.8" cx="85.5" cy="25.5" r="1.5" transform="rotate(-180 85.5 25.5)" fill="white"/>
<circle opacity="0.4" cx="73.5" cy="25.5" r="1.5" transform="rotate(-180 73.5 25.5)" fill="white"/>
<circle opacity="0.2" cx="61.5" cy="25.5" r="1.5" transform="rotate(-180 61.5 25.5)" fill="white"/>
<circle opacity="0.4" cx="49.5" cy="25.5" r="1.5" transform="rotate(-180 49.5 25.5)" fill="white"/>
<circle opacity="0.4" cx="37.5" cy="25.5" r="1.5" transform="rotate(-180 37.5 25.5)" fill="white"/>
<circle opacity="0.2" cx="25.5" cy="25.5" r="1.5" transform="rotate(-180 25.5 25.5)" fill="white"/>
<circle opacity="0.2" cx="13.5" cy="25.5" r="1.5" transform="rotate(-180 13.5 25.5)" fill="white"/>
<circle opacity="0.1" cx="1.5" cy="25.5" r="1.5" transform="rotate(-180 1.5 25.5)" fill="white"/>
<circle opacity="0.1" cx="133.5" cy="13.5" r="1.5" transform="rotate(-180 133.5 13.5)" fill="white"/>
<circle opacity="0.2" cx="121.5" cy="13.5" r="1.5" transform="rotate(-180 121.5 13.5)" fill="white"/>
<circle opacity="0.2" cx="109.5" cy="13.5" r="1.5" transform="rotate(-180 109.5 13.5)" fill="white"/>
<circle opacity="0.2" cx="97.5" cy="13.5" r="1.5" transform="rotate(-180 97.5 13.5)" fill="white"/>
<circle opacity="0.6" cx="85.5" cy="13.5" r="1.5" transform="rotate(-180 85.5 13.5)" fill="white"/>
<circle opacity="0.4" cx="73.5" cy="13.5" r="1.5" transform="rotate(-180 73.5 13.5)" fill="white"/>
<circle opacity="0.4" cx="61.5" cy="13.5" r="1.5" transform="rotate(-180 61.5 13.5)" fill="white"/>
<circle opacity="0.8" cx="49.5" cy="13.5" r="1.5" transform="rotate(-180 49.5 13.5)" fill="white"/>
<circle opacity="0.6" cx="37.5" cy="13.5" r="1.5" transform="rotate(-180 37.5 13.5)" fill="white"/>
<circle opacity="0.2" cx="25.5" cy="13.5" r="1.5" transform="rotate(-180 25.5 13.5)" fill="white"/>
<circle opacity="0.6" cx="13.5" cy="13.5" r="1.5" transform="rotate(-180 13.5 13.5)" fill="white"/>
<circle opacity="0.4" cx="1.5" cy="13.5" r="1.5" transform="rotate(-180 1.5 13.5)" fill="white"/>
<circle opacity="0.4" cx="133.5" cy="1.5" r="1.5" transform="rotate(-180 133.5 1.5)" fill="white"/>
<circle opacity="0.6" cx="121.5" cy="1.5" r="1.5" transform="rotate(-180 121.5 1.5)" fill="white"/>
<circle opacity="0.1" cx="109.5" cy="1.5" r="1.5" transform="rotate(-180 109.5 1.5)" fill="white"/>
<circle opacity="0.4" cx="97.5" cy="1.5" r="1.5" transform="rotate(-180 97.5 1.5)" fill="white"/>
<circle opacity="0.4" cx="85.5" cy="1.5" r="1.5" transform="rotate(-180 85.5 1.5)" fill="white"/>
<circle opacity="0.6" cx="73.5" cy="1.5" r="1.5" transform="rotate(-180 73.5 1.5)" fill="white"/>
<circle opacity="0.6" cx="61.5" cy="1.5" r="1.5" transform="rotate(-180 61.5 1.5)" fill="white"/>
<circle opacity="0.4" cx="49.5" cy="1.5" r="1.5" transform="rotate(-180 49.5 1.5)" fill="white"/>
<circle opacity="0.8" cx="37.5" cy="1.5" r="1.5" transform="rotate(-180 37.5 1.5)" fill="white"/>
<circle opacity="0.8" cx="25.5" cy="1.5" r="1.5" transform="rotate(-180 25.5 1.5)" fill="white"/>
<circle opacity="0.2" cx="13.5" cy="1.5" r="1.5" transform="rotate(-180 13.5 1.5)" fill="white"/>
<circle opacity="0.2" cx="1.5" cy="1.5" r="1.5" transform="rotate(-180 1.5 1.5)" fill="white"/>
<circle opacity="0.4" cx="277.5" cy="133.5" r="1.5" transform="rotate(-180 277.5 133.5)" fill="white"/>
<circle opacity="0.2" cx="265.5" cy="133.5" r="1.5" transform="rotate(-180 265.5 133.5)" fill="white"/>
<circle opacity="0.4" cx="253.5" cy="133.5" r="1.5" transform="rotate(-180 253.5 133.5)" fill="white"/>
<circle opacity="0.4" cx="241.5" cy="133.5" r="1.5" transform="rotate(-180 241.5 133.5)" fill="white"/>
<circle opacity="0.2" cx="229.5" cy="133.5" r="1.5" transform="rotate(-180 229.5 133.5)" fill="white"/>
<circle opacity="0.4" cx="217.5" cy="133.5" r="1.5" transform="rotate(-180 217.5 133.5)" fill="white"/>
<circle opacity="0.6" cx="205.5" cy="133.5" r="1.5" transform="rotate(-180 205.5 133.5)" fill="white"/>
<circle opacity="0.6" cx="193.5" cy="133.5" r="1.5" transform="rotate(-180 193.5 133.5)" fill="white"/>
<circle opacity="0.4" cx="181.5" cy="133.5" r="1.5" transform="rotate(-180 181.5 133.5)" fill="white"/>
<circle opacity="0.8" cx="169.5" cy="133.5" r="1.5" transform="rotate(-180 169.5 133.5)" fill="white"/>
<circle opacity="0.1" cx="157.5" cy="133.5" r="1.5" transform="rotate(-180 157.5 133.5)" fill="white"/>
<circle opacity="0.4" cx="145.5" cy="133.5" r="1.5" transform="rotate(-180 145.5 133.5)" fill="white"/>
<circle opacity="0.6" cx="277.5" cy="121.5" r="1.5" transform="rotate(-180 277.5 121.5)" fill="white"/>
<circle opacity="0.4" cx="265.5" cy="121.5" r="1.5" transform="rotate(-180 265.5 121.5)" fill="white"/>
<circle opacity="0.8" cx="253.5" cy="121.5" r="1.5" transform="rotate(-180 253.5 121.5)" fill="white"/>
<circle opacity="0.4" cx="241.5" cy="121.5" r="1.5" transform="rotate(-180 241.5 121.5)" fill="white"/>
<circle opacity="0.1" cx="229.5" cy="121.5" r="1.5" transform="rotate(-180 229.5 121.5)" fill="white"/>
<circle opacity="0.4" cx="217.5" cy="121.5" r="1.5" transform="rotate(-180 217.5 121.5)" fill="white"/>
<circle opacity="0.4" cx="205.5" cy="121.5" r="1.5" transform="rotate(-180 205.5 121.5)" fill="white"/>
<circle opacity="0.2" cx="193.5" cy="121.5" r="1.5" transform="rotate(-180 193.5 121.5)" fill="white"/>
<circle opacity="0.4" cx="181.5" cy="121.5" r="1.5" transform="rotate(-180 181.5 121.5)" fill="white"/>
<circle opacity="0.4" cx="169.5" cy="121.5" r="1.5" transform="rotate(-180 169.5 121.5)" fill="white"/>
<circle opacity="0.1" cx="157.5" cy="121.5" r="1.5" transform="rotate(-180 157.5 121.5)" fill="white"/>
<circle opacity="0.4" cx="145.5" cy="121.5" r="1.5" transform="rotate(-180 145.5 121.5)" fill="white"/>
<circle opacity="0.2" cx="277.5" cy="109.5" r="1.5" transform="rotate(-180 277.5 109.5)" fill="white"/>
<circle opacity="0.2" cx="265.5" cy="109.5" r="1.5" transform="rotate(-180 265.5 109.5)" fill="white"/>
<circle opacity="0.2" cx="253.5" cy="109.5" r="1.5" transform="rotate(-180 253.5 109.5)" fill="white"/>
<circle opacity="0.1" cx="241.5" cy="109.5" r="1.5" transform="rotate(-180 241.5 109.5)" fill="white"/>
<circle opacity="0.4" cx="229.5" cy="109.5" r="1.5" transform="rotate(-180 229.5 109.5)" fill="white"/>
<circle opacity="0.4" cx="217.5" cy="109.5" r="1.5" transform="rotate(-180 217.5 109.5)" fill="white"/>
<circle opacity="0.6" cx="205.5" cy="109.5" r="1.5" transform="rotate(-180 205.5 109.5)" fill="white"/>
<circle opacity="0.4" cx="193.5" cy="109.5" r="1.5" transform="rotate(-180 193.5 109.5)" fill="white"/>
<circle opacity="0.2" cx="181.5" cy="109.5" r="1.5" transform="rotate(-180 181.5 109.5)" fill="white"/>
<circle opacity="0.8" cx="169.5" cy="109.5" r="1.5" transform="rotate(-180 169.5 109.5)" fill="white"/>
<circle opacity="0.6" cx="157.5" cy="109.5" r="1.5" transform="rotate(-180 157.5 109.5)" fill="white"/>
<circle opacity="0.2" cx="145.5" cy="109.5" r="1.5" transform="rotate(-180 145.5 109.5)" fill="white"/>
<circle opacity="0.6" cx="277.5" cy="97.5" r="1.5" transform="rotate(-180 277.5 97.5)" fill="white"/>
<circle opacity="0.6" cx="265.5" cy="97.5" r="1.5" transform="rotate(-180 265.5 97.5)" fill="white"/>
<circle opacity="0.2" cx="253.5" cy="97.5" r="1.5" transform="rotate(-180 253.5 97.5)" fill="white"/>
<circle opacity="0.8" cx="241.5" cy="97.5" r="1.5" transform="rotate(-180 241.5 97.5)" fill="white"/>
<circle opacity="0.4" cx="229.5" cy="97.5" r="1.5" transform="rotate(-180 229.5 97.5)" fill="white"/>
<circle opacity="0.2" cx="217.5" cy="97.5" r="1.5" transform="rotate(-180 217.5 97.5)" fill="white"/>
<circle opacity="0.1" cx="205.5" cy="97.5" r="1.5" transform="rotate(-180 205.5 97.5)" fill="white"/>
<circle opacity="0.4" cx="193.5" cy="97.5" r="1.5" transform="rotate(-180 193.5 97.5)" fill="white"/>
<circle opacity="0.4" cx="181.5" cy="97.5" r="1.5" transform="rotate(-180 181.5 97.5)" fill="white"/>
<circle opacity="0.4" cx="169.5" cy="97.5" r="1.5" transform="rotate(-180 169.5 97.5)" fill="white"/>
<circle opacity="0.4" cx="157.5" cy="97.5" r="1.5" transform="rotate(-180 157.5 97.5)" fill="white"/>
<circle opacity="0.4" cx="145.5" cy="97.5" r="1.5" transform="rotate(-180 145.5 97.5)" fill="white"/>
<circle opacity="0.6" cx="277.5" cy="85.5" r="1.5" transform="rotate(-180 277.5 85.5)" fill="white"/>
<circle opacity="0.2" cx="265.5" cy="85.5" r="1.5" transform="rotate(-180 265.5 85.5)" fill="white"/>
<circle opacity="0.2" cx="253.5" cy="85.5" r="1.5" transform="rotate(-180 253.5 85.5)" fill="white"/>
<circle opacity="0.4" cx="241.5" cy="85.5" r="1.5" transform="rotate(-180 241.5 85.5)" fill="white"/>
<circle opacity="0.2" cx="229.5" cy="85.5" r="1.5" transform="rotate(-180 229.5 85.5)" fill="white"/>
<circle opacity="0.8" cx="217.5" cy="85.5" r="1.5" transform="rotate(-180 217.5 85.5)" fill="white"/>
<circle opacity="0.6" cx="205.5" cy="85.5" r="1.5" transform="rotate(-180 205.5 85.5)" fill="white"/>
<circle opacity="0.6" cx="193.5" cy="85.5" r="1.5" transform="rotate(-180 193.5 85.5)" fill="white"/>
<circle opacity="0.4" cx="181.5" cy="85.5" r="1.5" transform="rotate(-180 181.5 85.5)" fill="white"/>
<circle opacity="0.1" cx="169.5" cy="85.5" r="1.5" transform="rotate(-180 169.5 85.5)" fill="white"/>
<circle opacity="0.8" cx="157.5" cy="85.5" r="1.5" transform="rotate(-180 157.5 85.5)" fill="white"/>
<circle opacity="0.6" cx="145.5" cy="85.5" r="1.5" transform="rotate(-180 145.5 85.5)" fill="white"/>
<circle opacity="0.1" cx="277.5" cy="73.5" r="1.5" transform="rotate(-180 277.5 73.5)" fill="white"/>
<circle opacity="0.8" cx="265.5" cy="73.5" r="1.5" transform="rotate(-180 265.5 73.5)" fill="white"/>
<circle opacity="0.2" cx="253.5" cy="73.5" r="1.5" transform="rotate(-180 253.5 73.5)" fill="white"/>
<circle opacity="0.8" cx="241.5" cy="73.5" r="1.5" transform="rotate(-180 241.5 73.5)" fill="white"/>
<circle opacity="0.8" cx="229.5" cy="73.5" r="1.5" transform="rotate(-180 229.5 73.5)" fill="white"/>
<circle opacity="0.4" cx="217.5" cy="73.5" r="1.5" transform="rotate(-180 217.5 73.5)" fill="white"/>
<circle opacity="0.6" cx="205.5" cy="73.5" r="1.5" transform="rotate(-180 205.5 73.5)" fill="white"/>
<circle opacity="0.6" cx="193.5" cy="73.5" r="1.5" transform="rotate(-180 193.5 73.5)" fill="white"/>
<circle opacity="0.4" cx="181.5" cy="73.5" r="1.5" transform="rotate(-180 181.5 73.5)" fill="white"/>
<circle opacity="0.2" cx="169.5" cy="73.5" r="1.5" transform="rotate(-180 169.5 73.5)" fill="white"/>
<circle opacity="0.6" cx="157.5" cy="73.5" r="1.5" transform="rotate(-180 157.5 73.5)" fill="white"/>
<circle opacity="0.6" cx="145.5" cy="73.5" r="1.5" transform="rotate(-180 145.5 73.5)" fill="white"/>
<circle opacity="0.1" cx="277.5" cy="61.5" r="1.5" transform="rotate(-180 277.5 61.5)" fill="white"/>
<circle opacity="0.1" cx="265.5" cy="61.5" r="1.5" transform="rotate(-180 265.5 61.5)" fill="white"/>
<circle opacity="0.1" cx="253.5" cy="61.5" r="1.5" transform="rotate(-180 253.5 61.5)" fill="white"/>
<circle opacity="0.4" cx="241.5" cy="61.5" r="1.5" transform="rotate(-180 241.5 61.5)" fill="white"/>
<circle opacity="0.2" cx="229.5" cy="61.5" r="1.5" transform="rotate(-180 229.5 61.5)" fill="white"/>
<circle opacity="0.6" cx="217.5" cy="61.5" r="1.5" transform="rotate(-180 217.5 61.5)" fill="white"/>
<circle opacity="0.4" cx="205.5" cy="61.5" r="1.5" transform="rotate(-180 205.5 61.5)" fill="white"/>
<circle opacity="0.2" cx="193.5" cy="61.5" r="1.5" transform="rotate(-180 193.5 61.5)" fill="white"/>
<circle opacity="0.1" cx="181.5" cy="61.5" r="1.5" transform="rotate(-180 181.5 61.5)" fill="white"/>
<circle opacity="0.4" cx="169.5" cy="61.5" r="1.5" transform="rotate(-180 169.5 61.5)" fill="white"/>
<circle opacity="0.6" cx="157.5" cy="61.5" r="1.5" transform="rotate(-180 157.5 61.5)" fill="white"/>
<circle opacity="0.6" cx="145.5" cy="61.5" r="1.5" transform="rotate(-180 145.5 61.5)" fill="white"/>
<circle opacity="0.8" cx="277.5" cy="49.5" r="1.5" transform="rotate(-180 277.5 49.5)" fill="white"/>
<circle opacity="0.4" cx="265.5" cy="49.5" r="1.5" transform="rotate(-180 265.5 49.5)" fill="white"/>
<circle opacity="0.4" cx="253.5" cy="49.5" r="1.5" transform="rotate(-180 253.5 49.5)" fill="white"/>
<circle opacity="0.6" cx="241.5" cy="49.5" r="1.5" transform="rotate(-180 241.5 49.5)" fill="white"/>
<circle opacity="0.4" cx="229.5" cy="49.5" r="1.5" transform="rotate(-180 229.5 49.5)" fill="white"/>
<circle opacity="0.1" cx="217.5" cy="49.5" r="1.5" transform="rotate(-180 217.5 49.5)" fill="white"/>
<circle opacity="0.6" cx="205.5" cy="49.5" r="1.5" transform="rotate(-180 205.5 49.5)" fill="white"/>
<circle opacity="0.6" cx="193.5" cy="49.5" r="1.5" transform="rotate(-180 193.5 49.5)" fill="white"/>
<circle opacity="0.4" cx="181.5" cy="49.5" r="1.5" transform="rotate(-180 181.5 49.5)" fill="white"/>
<circle opacity="0.6" cx="169.5" cy="49.5" r="1.5" transform="rotate(-180 169.5 49.5)" fill="white"/>
<circle opacity="0.2" cx="157.5" cy="49.5" r="1.5" transform="rotate(-180 157.5 49.5)" fill="white"/>
<circle opacity="0.8" cx="145.5" cy="49.5" r="1.5" transform="rotate(-180 145.5 49.5)" fill="white"/>
<circle opacity="0.4" cx="277.5" cy="37.5" r="1.5" transform="rotate(-180 277.5 37.5)" fill="white"/>
<circle opacity="0.4" cx="265.5" cy="37.5" r="1.5" transform="rotate(-180 265.5 37.5)" fill="white"/>
<circle opacity="0.4" cx="253.5" cy="37.5" r="1.5" transform="rotate(-180 253.5 37.5)" fill="white"/>
<circle opacity="0.4" cx="241.5" cy="37.5" r="1.5" transform="rotate(-180 241.5 37.5)" fill="white"/>
<circle opacity="0.6" cx="229.5" cy="37.5" r="1.5" transform="rotate(-180 229.5 37.5)" fill="white"/>
<circle opacity="0.2" cx="217.5" cy="37.5" r="1.5" transform="rotate(-180 217.5 37.5)" fill="white"/>
<circle opacity="0.1" cx="205.5" cy="37.5" r="1.5" transform="rotate(-180 205.5 37.5)" fill="white"/>
<circle opacity="0.4" cx="193.5" cy="37.5" r="1.5" transform="rotate(-180 193.5 37.5)" fill="white"/>
<circle opacity="0.6" cx="181.5" cy="37.5" r="1.5" transform="rotate(-180 181.5 37.5)" fill="white"/>
<circle opacity="0.2" cx="169.5" cy="37.5" r="1.5" transform="rotate(-180 169.5 37.5)" fill="white"/>
<circle opacity="0.6" cx="157.5" cy="37.5" r="1.5" transform="rotate(-180 157.5 37.5)" fill="white"/>
<circle opacity="0.2" cx="145.5" cy="37.5" r="1.5" transform="rotate(-180 145.5 37.5)" fill="white"/>
<circle opacity="0.8" cx="277.5" cy="25.5" r="1.5" transform="rotate(-180 277.5 25.5)" fill="white"/>
<circle opacity="0.6" cx="265.5" cy="25.5" r="1.5" transform="rotate(-180 265.5 25.5)" fill="white"/>
<circle opacity="0.2" cx="253.5" cy="25.5" r="1.5" transform="rotate(-180 253.5 25.5)" fill="white"/>
<circle opacity="0.2" cx="241.5" cy="25.5" r="1.5" transform="rotate(-180 241.5 25.5)" fill="white"/>
<circle opacity="0.8" cx="229.5" cy="25.5" r="1.5" transform="rotate(-180 229.5 25.5)" fill="white"/>
<circle opacity="0.4" cx="217.5" cy="25.5" r="1.5" transform="rotate(-180 217.5 25.5)" fill="white"/>
<circle opacity="0.2" cx="205.5" cy="25.5" r="1.5" transform="rotate(-180 205.5 25.5)" fill="white"/>
<circle opacity="0.4" cx="193.5" cy="25.5" r="1.5" transform="rotate(-180 193.5 25.5)" fill="white"/>
<circle opacity="0.4" cx="181.5" cy="25.5" r="1.5" transform="rotate(-180 181.5 25.5)" fill="white"/>
<circle opacity="0.2" cx="169.5" cy="25.5" r="1.5" transform="rotate(-180 169.5 25.5)" fill="white"/>
<circle opacity="0.2" cx="157.5" cy="25.5" r="1.5" transform="rotate(-180 157.5 25.5)" fill="white"/>
<circle opacity="0.1" cx="145.5" cy="25.5" r="1.5" transform="rotate(-180 145.5 25.5)" fill="white"/>
<circle opacity="0.1" cx="277.5" cy="13.5" r="1.5" transform="rotate(-180 277.5 13.5)" fill="white"/>
<circle opacity="0.2" cx="265.5" cy="13.5" r="1.5" transform="rotate(-180 265.5 13.5)" fill="white"/>
<circle opacity="0.2" cx="253.5" cy="13.5" r="1.5" transform="rotate(-180 253.5 13.5)" fill="white"/>
<circle opacity="0.2" cx="241.5" cy="13.5" r="1.5" transform="rotate(-180 241.5 13.5)" fill="white"/>
<circle opacity="0.6" cx="229.5" cy="13.5" r="1.5" transform="rotate(-180 229.5 13.5)" fill="white"/>
<circle opacity="0.4" cx="217.5" cy="13.5" r="1.5" transform="rotate(-180 217.5 13.5)" fill="white"/>
<circle opacity="0.4" cx="205.5" cy="13.5" r="1.5" transform="rotate(-180 205.5 13.5)" fill="white"/>
<circle opacity="0.8" cx="193.5" cy="13.5" r="1.5" transform="rotate(-180 193.5 13.5)" fill="white"/>
<circle opacity="0.6" cx="181.5" cy="13.5" r="1.5" transform="rotate(-180 181.5 13.5)" fill="white"/>
<circle opacity="0.2" cx="169.5" cy="13.5" r="1.5" transform="rotate(-180 169.5 13.5)" fill="white"/>
<circle opacity="0.6" cx="157.5" cy="13.5" r="1.5" transform="rotate(-180 157.5 13.5)" fill="white"/>
<circle opacity="0.4" cx="145.5" cy="13.5" r="1.5" transform="rotate(-180 145.5 13.5)" fill="white"/>
<circle opacity="0.4" cx="277.5" cy="1.5" r="1.5" transform="rotate(-180 277.5 1.5)" fill="white"/>
<circle opacity="0.6" cx="265.5" cy="1.5" r="1.5" transform="rotate(-180 265.5 1.5)" fill="white"/>
<circle opacity="0.1" cx="253.5" cy="1.5" r="1.5" transform="rotate(-180 253.5 1.5)" fill="white"/>
<circle opacity="0.4" cx="241.5" cy="1.5" r="1.5" transform="rotate(-180 241.5 1.5)" fill="white"/>
<circle opacity="0.4" cx="229.5" cy="1.5" r="1.5" transform="rotate(-180 229.5 1.5)" fill="white"/>
<circle opacity="0.6" cx="217.5" cy="1.5" r="1.5" transform="rotate(-180 217.5 1.5)" fill="white"/>
<circle opacity="0.6" cx="205.5" cy="1.5" r="1.5" transform="rotate(-180 205.5 1.5)" fill="white"/>
<circle opacity="0.4" cx="193.5" cy="1.5" r="1.5" transform="rotate(-180 193.5 1.5)" fill="white"/>
<circle opacity="0.8" cx="181.5" cy="1.5" r="1.5" transform="rotate(-180 181.5 1.5)" fill="white"/>
<circle opacity="0.8" cx="169.5" cy="1.5" r="1.5" transform="rotate(-180 169.5 1.5)" fill="white"/>
<circle opacity="0.2" cx="157.5" cy="1.5" r="1.5" transform="rotate(-180 157.5 1.5)" fill="white"/>
<circle opacity="0.2" cx="145.5" cy="1.5" r="1.5" transform="rotate(-180 145.5 1.5)" fill="white"/>
</g>
<defs>
<radialGradient id="paint0_radial_259_8907" cx="0" cy="0" r="1" gradientUnits="userSpaceOnUse" gradientTransform="translate(534 135.5) rotate(129.532) scale(174.388)">
<stop stop-color="#C4C4C4" stop-opacity="0.6"/>
<stop offset="0.307292" stop-color="#C4C4C4" stop-opacity="0.4"/>
<stop offset="1" stop-color="#C4C4C4" stop-opacity="0"/>
</radialGradient>
</defs>
</svg>
