<svg width="279" height="135" viewBox="0 0 279 135" fill="none" xmlns="http://www.w3.org/2000/svg">
    <mask id="mask0_259_7320" style="mask-type:alpha" maskUnits="userSpaceOnUse" x="0" y="0" width="279" height="135">
        <rect width="279" height="135" transform="matrix(-1 0 0 1 279 0)" fill="url(#paint0_radial_259_7320)"/>
    </mask>
    <g mask="url(#mask0_259_7320)">
        <circle opacity="0.4" cx="1.5" cy="1.5" r="1.5" transform="matrix(-1 0 0 1 135 0)" fill="#8419FF"/>
        <circle opacity="0.2" cx="1.5" cy="1.5" r="1.5" transform="matrix(-1 0 0 1 123 0)" fill="#8419FF"/>
        <circle opacity="0.4" cx="1.5" cy="1.5" r="1.5" transform="matrix(-1 0 0 1 111 0)" fill="#8419FF"/>
        <circle opacity="0.4" cx="1.5" cy="1.5" r="1.5" transform="matrix(-1 0 0 1 99 0)" fill="#8419FF"/>
        <circle opacity="0.2" cx="1.5" cy="1.5" r="1.5" transform="matrix(-1 0 0 1 87 0)" fill="#8419FF"/>
        <circle opacity="0.4" cx="1.5" cy="1.5" r="1.5" transform="matrix(-1 0 0 1 75 0)" fill="#8419FF"/>
        <circle opacity="0.6" cx="1.5" cy="1.5" r="1.5" transform="matrix(-1 0 0 1 63 0)" fill="#8419FF"/>
        <circle opacity="0.6" cx="1.5" cy="1.5" r="1.5" transform="matrix(-1 0 0 1 51 0)" fill="#8419FF"/>
        <circle opacity="0.4" cx="1.5" cy="1.5" r="1.5" transform="matrix(-1 0 0 1 39 0)" fill="#8419FF"/>
        <circle opacity="0.8" cx="1.5" cy="1.5" r="1.5" transform="matrix(-1 0 0 1 27 0)" fill="#8419FF"/>
        <circle opacity="0.1" cx="1.5" cy="1.5" r="1.5" transform="matrix(-1 0 0 1 15 0)" fill="#8419FF"/>
        <circle opacity="0.4" cx="1.5" cy="1.5" r="1.5" transform="matrix(-1 0 0 1 3 0)" fill="#8419FF"/>
        <circle opacity="0.6" cx="1.5" cy="1.5" r="1.5" transform="matrix(-1 0 0 1 135 12)" fill="#8419FF"/>
        <circle opacity="0.4" cx="1.5" cy="1.5" r="1.5" transform="matrix(-1 0 0 1 123 12)" fill="#8419FF"/>
        <circle opacity="0.8" cx="1.5" cy="1.5" r="1.5" transform="matrix(-1 0 0 1 111 12)" fill="#8419FF"/>
        <circle opacity="0.4" cx="1.5" cy="1.5" r="1.5" transform="matrix(-1 0 0 1 99 12)" fill="#8419FF"/>
        <circle opacity="0.1" cx="1.5" cy="1.5" r="1.5" transform="matrix(-1 0 0 1 87 12)" fill="#8419FF"/>
        <circle opacity="0.4" cx="1.5" cy="1.5" r="1.5" transform="matrix(-1 0 0 1 75 12)" fill="#8419FF"/>
        <circle opacity="0.4" cx="1.5" cy="1.5" r="1.5" transform="matrix(-1 0 0 1 63 12)" fill="#8419FF"/>
        <circle opacity="0.2" cx="1.5" cy="1.5" r="1.5" transform="matrix(-1 0 0 1 51 12)" fill="#8419FF"/>
        <circle opacity="0.4" cx="1.5" cy="1.5" r="1.5" transform="matrix(-1 0 0 1 39 12)" fill="#8419FF"/>
        <circle opacity="0.4" cx="1.5" cy="1.5" r="1.5" transform="matrix(-1 0 0 1 27 12)" fill="#8419FF"/>
        <circle opacity="0.1" cx="1.5" cy="1.5" r="1.5" transform="matrix(-1 0 0 1 15 12)" fill="#8419FF"/>
        <circle opacity="0.4" cx="1.5" cy="1.5" r="1.5" transform="matrix(-1 0 0 1 3 12)" fill="#8419FF"/>
        <circle opacity="0.2" cx="1.5" cy="1.5" r="1.5" transform="matrix(-1 0 0 1 135 24)" fill="#8419FF"/>
        <circle opacity="0.2" cx="1.5" cy="1.5" r="1.5" transform="matrix(-1 0 0 1 123 24)" fill="#8419FF"/>
        <circle opacity="0.2" cx="1.5" cy="1.5" r="1.5" transform="matrix(-1 0 0 1 111 24)" fill="#8419FF"/>
        <circle opacity="0.1" cx="1.5" cy="1.5" r="1.5" transform="matrix(-1 0 0 1 99 24)" fill="#8419FF"/>
        <circle opacity="0.4" cx="1.5" cy="1.5" r="1.5" transform="matrix(-1 0 0 1 87 24)" fill="#8419FF"/>
        <circle opacity="0.4" cx="1.5" cy="1.5" r="1.5" transform="matrix(-1 0 0 1 75 24)" fill="#8419FF"/>
        <circle opacity="0.6" cx="1.5" cy="1.5" r="1.5" transform="matrix(-1 0 0 1 63 24)" fill="#8419FF"/>
        <circle opacity="0.4" cx="1.5" cy="1.5" r="1.5" transform="matrix(-1 0 0 1 51 24)" fill="#8419FF"/>
        <circle opacity="0.2" cx="1.5" cy="1.5" r="1.5" transform="matrix(-1 0 0 1 39 24)" fill="#8419FF"/>
        <circle opacity="0.8" cx="1.5" cy="1.5" r="1.5" transform="matrix(-1 0 0 1 27 24)" fill="#8419FF"/>
        <circle opacity="0.6" cx="1.5" cy="1.5" r="1.5" transform="matrix(-1 0 0 1 15 24)" fill="#8419FF"/>
        <circle opacity="0.2" cx="1.5" cy="1.5" r="1.5" transform="matrix(-1 0 0 1 3 24)" fill="#8419FF"/>
        <circle opacity="0.6" cx="1.5" cy="1.5" r="1.5" transform="matrix(-1 0 0 1 135 36)" fill="#8419FF"/>
        <circle opacity="0.6" cx="1.5" cy="1.5" r="1.5" transform="matrix(-1 0 0 1 123 36)" fill="#8419FF"/>
        <circle opacity="0.2" cx="1.5" cy="1.5" r="1.5" transform="matrix(-1 0 0 1 111 36)" fill="#8419FF"/>
        <circle opacity="0.8" cx="1.5" cy="1.5" r="1.5" transform="matrix(-1 0 0 1 99 36)" fill="#8419FF"/>
        <circle opacity="0.4" cx="1.5" cy="1.5" r="1.5" transform="matrix(-1 0 0 1 87 36)" fill="#8419FF"/>
        <circle opacity="0.2" cx="1.5" cy="1.5" r="1.5" transform="matrix(-1 0 0 1 75 36)" fill="#8419FF"/>
        <circle opacity="0.1" cx="1.5" cy="1.5" r="1.5" transform="matrix(-1 0 0 1 63 36)" fill="#8419FF"/>
        <circle opacity="0.4" cx="1.5" cy="1.5" r="1.5" transform="matrix(-1 0 0 1 51 36)" fill="#8419FF"/>
        <circle opacity="0.4" cx="1.5" cy="1.5" r="1.5" transform="matrix(-1 0 0 1 39 36)" fill="#8419FF"/>
        <circle opacity="0.4" cx="1.5" cy="1.5" r="1.5" transform="matrix(-1 0 0 1 27 36)" fill="#8419FF"/>
        <circle opacity="0.4" cx="1.5" cy="1.5" r="1.5" transform="matrix(-1 0 0 1 15 36)" fill="#8419FF"/>
        <circle opacity="0.4" cx="1.5" cy="1.5" r="1.5" transform="matrix(-1 0 0 1 3 36)" fill="#8419FF"/>
        <circle opacity="0.6" cx="1.5" cy="1.5" r="1.5" transform="matrix(-1 0 0 1 135 48)" fill="#8419FF"/>
        <circle opacity="0.2" cx="1.5" cy="1.5" r="1.5" transform="matrix(-1 0 0 1 123 48)" fill="#8419FF"/>
        <circle opacity="0.2" cx="1.5" cy="1.5" r="1.5" transform="matrix(-1 0 0 1 111 48)" fill="#8419FF"/>
        <circle opacity="0.4" cx="1.5" cy="1.5" r="1.5" transform="matrix(-1 0 0 1 99 48)" fill="#8419FF"/>
        <circle opacity="0.2" cx="1.5" cy="1.5" r="1.5" transform="matrix(-1 0 0 1 87 48)" fill="#8419FF"/>
        <circle opacity="0.8" cx="1.5" cy="1.5" r="1.5" transform="matrix(-1 0 0 1 75 48)" fill="#8419FF"/>
        <circle opacity="0.6" cx="1.5" cy="1.5" r="1.5" transform="matrix(-1 0 0 1 63 48)" fill="#8419FF"/>
        <circle opacity="0.6" cx="1.5" cy="1.5" r="1.5" transform="matrix(-1 0 0 1 51 48)" fill="#8419FF"/>
        <circle opacity="0.4" cx="1.5" cy="1.5" r="1.5" transform="matrix(-1 0 0 1 39 48)" fill="#8419FF"/>
        <circle opacity="0.1" cx="1.5" cy="1.5" r="1.5" transform="matrix(-1 0 0 1 27 48)" fill="#8419FF"/>
        <circle opacity="0.8" cx="1.5" cy="1.5" r="1.5" transform="matrix(-1 0 0 1 15 48)" fill="#8419FF"/>
        <circle opacity="0.6" cx="1.5" cy="1.5" r="1.5" transform="matrix(-1 0 0 1 3 48)" fill="#8419FF"/>
        <circle opacity="0.1" cx="1.5" cy="1.5" r="1.5" transform="matrix(-1 0 0 1 135 60)" fill="#8419FF"/>
        <circle opacity="0.8" cx="1.5" cy="1.5" r="1.5" transform="matrix(-1 0 0 1 123 60)" fill="#8419FF"/>
        <circle opacity="0.2" cx="1.5" cy="1.5" r="1.5" transform="matrix(-1 0 0 1 111 60)" fill="#8419FF"/>
        <circle opacity="0.8" cx="1.5" cy="1.5" r="1.5" transform="matrix(-1 0 0 1 99 60)" fill="#8419FF"/>
        <circle opacity="0.8" cx="1.5" cy="1.5" r="1.5" transform="matrix(-1 0 0 1 87 60)" fill="#8419FF"/>
        <circle opacity="0.4" cx="1.5" cy="1.5" r="1.5" transform="matrix(-1 0 0 1 75 60)" fill="#8419FF"/>
        <circle opacity="0.6" cx="1.5" cy="1.5" r="1.5" transform="matrix(-1 0 0 1 63 60)" fill="#8419FF"/>
        <circle opacity="0.6" cx="1.5" cy="1.5" r="1.5" transform="matrix(-1 0 0 1 51 60)" fill="#8419FF"/>
        <circle opacity="0.4" cx="1.5" cy="1.5" r="1.5" transform="matrix(-1 0 0 1 39 60)" fill="#8419FF"/>
        <circle opacity="0.2" cx="1.5" cy="1.5" r="1.5" transform="matrix(-1 0 0 1 27 60)" fill="#8419FF"/>
        <circle opacity="0.6" cx="1.5" cy="1.5" r="1.5" transform="matrix(-1 0 0 1 15 60)" fill="#8419FF"/>
        <circle opacity="0.6" cx="1.5" cy="1.5" r="1.5" transform="matrix(-1 0 0 1 3 60)" fill="#8419FF"/>
        <circle opacity="0.1" cx="1.5" cy="1.5" r="1.5" transform="matrix(-1 0 0 1 135 72)" fill="#8419FF"/>
        <circle opacity="0.1" cx="1.5" cy="1.5" r="1.5" transform="matrix(-1 0 0 1 123 72)" fill="#8419FF"/>
        <circle opacity="0.1" cx="1.5" cy="1.5" r="1.5" transform="matrix(-1 0 0 1 111 72)" fill="#8419FF"/>
        <circle opacity="0.4" cx="1.5" cy="1.5" r="1.5" transform="matrix(-1 0 0 1 99 72)" fill="#8419FF"/>
        <circle opacity="0.2" cx="1.5" cy="1.5" r="1.5" transform="matrix(-1 0 0 1 87 72)" fill="#8419FF"/>
        <circle opacity="0.6" cx="1.5" cy="1.5" r="1.5" transform="matrix(-1 0 0 1 75 72)" fill="#8419FF"/>
        <circle opacity="0.4" cx="1.5" cy="1.5" r="1.5" transform="matrix(-1 0 0 1 63 72)" fill="#8419FF"/>
        <circle opacity="0.2" cx="1.5" cy="1.5" r="1.5" transform="matrix(-1 0 0 1 51 72)" fill="#8419FF"/>
        <circle opacity="0.1" cx="1.5" cy="1.5" r="1.5" transform="matrix(-1 0 0 1 39 72)" fill="#8419FF"/>
        <circle opacity="0.4" cx="1.5" cy="1.5" r="1.5" transform="matrix(-1 0 0 1 27 72)" fill="#8419FF"/>
        <circle opacity="0.6" cx="1.5" cy="1.5" r="1.5" transform="matrix(-1 0 0 1 15 72)" fill="#8419FF"/>
        <circle opacity="0.6" cx="1.5" cy="1.5" r="1.5" transform="matrix(-1 0 0 1 3 72)" fill="#8419FF"/>
        <circle opacity="0.8" cx="1.5" cy="1.5" r="1.5" transform="matrix(-1 0 0 1 135 84)" fill="#8419FF"/>
        <circle opacity="0.4" cx="1.5" cy="1.5" r="1.5" transform="matrix(-1 0 0 1 123 84)" fill="#8419FF"/>
        <circle opacity="0.4" cx="1.5" cy="1.5" r="1.5" transform="matrix(-1 0 0 1 111 84)" fill="#8419FF"/>
        <circle opacity="0.6" cx="1.5" cy="1.5" r="1.5" transform="matrix(-1 0 0 1 99 84)" fill="#8419FF"/>
        <circle opacity="0.4" cx="1.5" cy="1.5" r="1.5" transform="matrix(-1 0 0 1 87 84)" fill="#8419FF"/>
        <circle opacity="0.1" cx="1.5" cy="1.5" r="1.5" transform="matrix(-1 0 0 1 75 84)" fill="#8419FF"/>
        <circle opacity="0.6" cx="1.5" cy="1.5" r="1.5" transform="matrix(-1 0 0 1 63 84)" fill="#8419FF"/>
        <circle opacity="0.6" cx="1.5" cy="1.5" r="1.5" transform="matrix(-1 0 0 1 51 84)" fill="#8419FF"/>
        <circle opacity="0.4" cx="1.5" cy="1.5" r="1.5" transform="matrix(-1 0 0 1 39 84)" fill="#8419FF"/>
        <circle opacity="0.6" cx="1.5" cy="1.5" r="1.5" transform="matrix(-1 0 0 1 27 84)" fill="#8419FF"/>
        <circle opacity="0.2" cx="1.5" cy="1.5" r="1.5" transform="matrix(-1 0 0 1 15 84)" fill="#8419FF"/>
        <circle opacity="0.8" cx="1.5" cy="1.5" r="1.5" transform="matrix(-1 0 0 1 3 84)" fill="#8419FF"/>
        <circle opacity="0.4" cx="1.5" cy="1.5" r="1.5" transform="matrix(-1 0 0 1 135 96)" fill="#8419FF"/>
        <circle opacity="0.4" cx="1.5" cy="1.5" r="1.5" transform="matrix(-1 0 0 1 123 96)" fill="#8419FF"/>
        <circle opacity="0.4" cx="1.5" cy="1.5" r="1.5" transform="matrix(-1 0 0 1 111 96)" fill="#8419FF"/>
        <circle opacity="0.4" cx="1.5" cy="1.5" r="1.5" transform="matrix(-1 0 0 1 99 96)" fill="#8419FF"/>
        <circle opacity="0.6" cx="1.5" cy="1.5" r="1.5" transform="matrix(-1 0 0 1 87 96)" fill="#8419FF"/>
        <circle opacity="0.2" cx="1.5" cy="1.5" r="1.5" transform="matrix(-1 0 0 1 75 96)" fill="#8419FF"/>
        <circle opacity="0.1" cx="1.5" cy="1.5" r="1.5" transform="matrix(-1 0 0 1 63 96)" fill="#8419FF"/>
        <circle opacity="0.4" cx="1.5" cy="1.5" r="1.5" transform="matrix(-1 0 0 1 51 96)" fill="#8419FF"/>
        <circle opacity="0.6" cx="1.5" cy="1.5" r="1.5" transform="matrix(-1 0 0 1 39 96)" fill="#8419FF"/>
        <circle opacity="0.2" cx="1.5" cy="1.5" r="1.5" transform="matrix(-1 0 0 1 27 96)" fill="#8419FF"/>
        <circle opacity="0.6" cx="1.5" cy="1.5" r="1.5" transform="matrix(-1 0 0 1 15 96)" fill="#8419FF"/>
        <circle opacity="0.2" cx="1.5" cy="1.5" r="1.5" transform="matrix(-1 0 0 1 3 96)" fill="#8419FF"/>
        <circle opacity="0.8" cx="1.5" cy="1.5" r="1.5" transform="matrix(-1 0 0 1 135 108)" fill="#8419FF"/>
        <circle opacity="0.6" cx="1.5" cy="1.5" r="1.5" transform="matrix(-1 0 0 1 123 108)" fill="#8419FF"/>
        <circle opacity="0.2" cx="1.5" cy="1.5" r="1.5" transform="matrix(-1 0 0 1 111 108)" fill="#8419FF"/>
        <circle opacity="0.2" cx="1.5" cy="1.5" r="1.5" transform="matrix(-1 0 0 1 99 108)" fill="#8419FF"/>
        <circle opacity="0.8" cx="1.5" cy="1.5" r="1.5" transform="matrix(-1 0 0 1 87 108)" fill="#8419FF"/>
        <circle opacity="0.4" cx="1.5" cy="1.5" r="1.5" transform="matrix(-1 0 0 1 75 108)" fill="#8419FF"/>
        <circle opacity="0.2" cx="1.5" cy="1.5" r="1.5" transform="matrix(-1 0 0 1 63 108)" fill="#8419FF"/>
        <circle opacity="0.4" cx="1.5" cy="1.5" r="1.5" transform="matrix(-1 0 0 1 51 108)" fill="#8419FF"/>
        <circle opacity="0.4" cx="1.5" cy="1.5" r="1.5" transform="matrix(-1 0 0 1 39 108)" fill="#8419FF"/>
        <circle opacity="0.2" cx="1.5" cy="1.5" r="1.5" transform="matrix(-1 0 0 1 27 108)" fill="#8419FF"/>
        <circle opacity="0.2" cx="1.5" cy="1.5" r="1.5" transform="matrix(-1 0 0 1 15 108)" fill="#8419FF"/>
        <circle opacity="0.1" cx="1.5" cy="1.5" r="1.5" transform="matrix(-1 0 0 1 3 108)" fill="#8419FF"/>
        <circle opacity="0.1" cx="1.5" cy="1.5" r="1.5" transform="matrix(-1 0 0 1 135 120)" fill="#8419FF"/>
        <circle opacity="0.2" cx="1.5" cy="1.5" r="1.5" transform="matrix(-1 0 0 1 123 120)" fill="#8419FF"/>
        <circle opacity="0.2" cx="1.5" cy="1.5" r="1.5" transform="matrix(-1 0 0 1 111 120)" fill="#8419FF"/>
        <circle opacity="0.2" cx="1.5" cy="1.5" r="1.5" transform="matrix(-1 0 0 1 99 120)" fill="#8419FF"/>
        <circle opacity="0.6" cx="1.5" cy="1.5" r="1.5" transform="matrix(-1 0 0 1 87 120)" fill="#8419FF"/>
        <circle opacity="0.4" cx="1.5" cy="1.5" r="1.5" transform="matrix(-1 0 0 1 75 120)" fill="#8419FF"/>
        <circle opacity="0.4" cx="1.5" cy="1.5" r="1.5" transform="matrix(-1 0 0 1 63 120)" fill="#8419FF"/>
        <circle opacity="0.8" cx="1.5" cy="1.5" r="1.5" transform="matrix(-1 0 0 1 51 120)" fill="#8419FF"/>
        <circle opacity="0.6" cx="1.5" cy="1.5" r="1.5" transform="matrix(-1 0 0 1 39 120)" fill="#8419FF"/>
        <circle opacity="0.2" cx="1.5" cy="1.5" r="1.5" transform="matrix(-1 0 0 1 27 120)" fill="#8419FF"/>
        <circle opacity="0.6" cx="1.5" cy="1.5" r="1.5" transform="matrix(-1 0 0 1 15 120)" fill="#8419FF"/>
        <circle opacity="0.4" cx="1.5" cy="1.5" r="1.5" transform="matrix(-1 0 0 1 3 120)" fill="#8419FF"/>
        <circle opacity="0.4" cx="1.5" cy="1.5" r="1.5" transform="matrix(-1 0 0 1 135 132)" fill="#8419FF"/>
        <circle opacity="0.6" cx="1.5" cy="1.5" r="1.5" transform="matrix(-1 0 0 1 123 132)" fill="#8419FF"/>
        <circle opacity="0.1" cx="1.5" cy="1.5" r="1.5" transform="matrix(-1 0 0 1 111 132)" fill="#8419FF"/>
        <circle opacity="0.4" cx="1.5" cy="1.5" r="1.5" transform="matrix(-1 0 0 1 99 132)" fill="#8419FF"/>
        <circle opacity="0.4" cx="1.5" cy="1.5" r="1.5" transform="matrix(-1 0 0 1 87 132)" fill="#8419FF"/>
        <circle opacity="0.6" cx="1.5" cy="1.5" r="1.5" transform="matrix(-1 0 0 1 75 132)" fill="#8419FF"/>
        <circle opacity="0.6" cx="1.5" cy="1.5" r="1.5" transform="matrix(-1 0 0 1 63 132)" fill="#8419FF"/>
        <circle opacity="0.4" cx="1.5" cy="1.5" r="1.5" transform="matrix(-1 0 0 1 51 132)" fill="#8419FF"/>
        <circle opacity="0.8" cx="1.5" cy="1.5" r="1.5" transform="matrix(-1 0 0 1 39 132)" fill="#8419FF"/>
        <circle opacity="0.8" cx="1.5" cy="1.5" r="1.5" transform="matrix(-1 0 0 1 27 132)" fill="#8419FF"/>
        <circle opacity="0.2" cx="1.5" cy="1.5" r="1.5" transform="matrix(-1 0 0 1 15 132)" fill="#8419FF"/>
        <circle opacity="0.2" cx="1.5" cy="1.5" r="1.5" transform="matrix(-1 0 0 1 3 132)" fill="#8419FF"/>
        <circle opacity="0.4" cx="1.5" cy="1.5" r="1.5" transform="matrix(-1 0 0 1 279 0)" fill="#8419FF"/>
        <circle opacity="0.2" cx="1.5" cy="1.5" r="1.5" transform="matrix(-1 0 0 1 267 0)" fill="#8419FF"/>
        <circle opacity="0.4" cx="1.5" cy="1.5" r="1.5" transform="matrix(-1 0 0 1 255 0)" fill="#8419FF"/>
        <circle opacity="0.4" cx="1.5" cy="1.5" r="1.5" transform="matrix(-1 0 0 1 243 0)" fill="#8419FF"/>
        <circle opacity="0.2" cx="1.5" cy="1.5" r="1.5" transform="matrix(-1 0 0 1 231 0)" fill="#8419FF"/>
        <circle opacity="0.4" cx="1.5" cy="1.5" r="1.5" transform="matrix(-1 0 0 1 219 0)" fill="#8419FF"/>
        <circle opacity="0.6" cx="1.5" cy="1.5" r="1.5" transform="matrix(-1 0 0 1 207 0)" fill="#8419FF"/>
        <circle opacity="0.6" cx="1.5" cy="1.5" r="1.5" transform="matrix(-1 0 0 1 195 0)" fill="#8419FF"/>
        <circle opacity="0.4" cx="1.5" cy="1.5" r="1.5" transform="matrix(-1 0 0 1 183 0)" fill="#8419FF"/>
        <circle opacity="0.8" cx="1.5" cy="1.5" r="1.5" transform="matrix(-1 0 0 1 171 0)" fill="#8419FF"/>
        <circle opacity="0.1" cx="1.5" cy="1.5" r="1.5" transform="matrix(-1 0 0 1 159 0)" fill="#8419FF"/>
        <circle opacity="0.4" cx="1.5" cy="1.5" r="1.5" transform="matrix(-1 0 0 1 147 0)" fill="#8419FF"/>
        <circle opacity="0.6" cx="1.5" cy="1.5" r="1.5" transform="matrix(-1 0 0 1 279 12)" fill="#8419FF"/>
        <circle opacity="0.4" cx="1.5" cy="1.5" r="1.5" transform="matrix(-1 0 0 1 267 12)" fill="#8419FF"/>
        <circle opacity="0.8" cx="1.5" cy="1.5" r="1.5" transform="matrix(-1 0 0 1 255 12)" fill="#8419FF"/>
        <circle opacity="0.4" cx="1.5" cy="1.5" r="1.5" transform="matrix(-1 0 0 1 243 12)" fill="#8419FF"/>
        <circle opacity="0.1" cx="1.5" cy="1.5" r="1.5" transform="matrix(-1 0 0 1 231 12)" fill="#8419FF"/>
        <circle opacity="0.4" cx="1.5" cy="1.5" r="1.5" transform="matrix(-1 0 0 1 219 12)" fill="#8419FF"/>
        <circle opacity="0.4" cx="1.5" cy="1.5" r="1.5" transform="matrix(-1 0 0 1 207 12)" fill="#8419FF"/>
        <circle opacity="0.2" cx="1.5" cy="1.5" r="1.5" transform="matrix(-1 0 0 1 195 12)" fill="#8419FF"/>
        <circle opacity="0.4" cx="1.5" cy="1.5" r="1.5" transform="matrix(-1 0 0 1 183 12)" fill="#8419FF"/>
        <circle opacity="0.4" cx="1.5" cy="1.5" r="1.5" transform="matrix(-1 0 0 1 171 12)" fill="#8419FF"/>
        <circle opacity="0.1" cx="1.5" cy="1.5" r="1.5" transform="matrix(-1 0 0 1 159 12)" fill="#8419FF"/>
        <circle opacity="0.4" cx="1.5" cy="1.5" r="1.5" transform="matrix(-1 0 0 1 147 12)" fill="#8419FF"/>
        <circle opacity="0.2" cx="1.5" cy="1.5" r="1.5" transform="matrix(-1 0 0 1 279 24)" fill="#8419FF"/>
        <circle opacity="0.2" cx="1.5" cy="1.5" r="1.5" transform="matrix(-1 0 0 1 267 24)" fill="#8419FF"/>
        <circle opacity="0.2" cx="1.5" cy="1.5" r="1.5" transform="matrix(-1 0 0 1 255 24)" fill="#8419FF"/>
        <circle opacity="0.1" cx="1.5" cy="1.5" r="1.5" transform="matrix(-1 0 0 1 243 24)" fill="#8419FF"/>
        <circle opacity="0.4" cx="1.5" cy="1.5" r="1.5" transform="matrix(-1 0 0 1 231 24)" fill="#8419FF"/>
        <circle opacity="0.4" cx="1.5" cy="1.5" r="1.5" transform="matrix(-1 0 0 1 219 24)" fill="#8419FF"/>
        <circle opacity="0.6" cx="1.5" cy="1.5" r="1.5" transform="matrix(-1 0 0 1 207 24)" fill="#8419FF"/>
        <circle opacity="0.4" cx="1.5" cy="1.5" r="1.5" transform="matrix(-1 0 0 1 195 24)" fill="#8419FF"/>
        <circle opacity="0.2" cx="1.5" cy="1.5" r="1.5" transform="matrix(-1 0 0 1 183 24)" fill="#8419FF"/>
        <circle opacity="0.8" cx="1.5" cy="1.5" r="1.5" transform="matrix(-1 0 0 1 171 24)" fill="#8419FF"/>
        <circle opacity="0.6" cx="1.5" cy="1.5" r="1.5" transform="matrix(-1 0 0 1 159 24)" fill="#8419FF"/>
        <circle opacity="0.2" cx="1.5" cy="1.5" r="1.5" transform="matrix(-1 0 0 1 147 24)" fill="#8419FF"/>
        <circle opacity="0.6" cx="1.5" cy="1.5" r="1.5" transform="matrix(-1 0 0 1 279 36)" fill="#8419FF"/>
        <circle opacity="0.6" cx="1.5" cy="1.5" r="1.5" transform="matrix(-1 0 0 1 267 36)" fill="#8419FF"/>
        <circle opacity="0.2" cx="1.5" cy="1.5" r="1.5" transform="matrix(-1 0 0 1 255 36)" fill="#8419FF"/>
        <circle opacity="0.8" cx="1.5" cy="1.5" r="1.5" transform="matrix(-1 0 0 1 243 36)" fill="#8419FF"/>
        <circle opacity="0.4" cx="1.5" cy="1.5" r="1.5" transform="matrix(-1 0 0 1 231 36)" fill="#8419FF"/>
        <circle opacity="0.2" cx="1.5" cy="1.5" r="1.5" transform="matrix(-1 0 0 1 219 36)" fill="#8419FF"/>
        <circle opacity="0.1" cx="1.5" cy="1.5" r="1.5" transform="matrix(-1 0 0 1 207 36)" fill="#8419FF"/>
        <circle opacity="0.4" cx="1.5" cy="1.5" r="1.5" transform="matrix(-1 0 0 1 195 36)" fill="#8419FF"/>
        <circle opacity="0.4" cx="1.5" cy="1.5" r="1.5" transform="matrix(-1 0 0 1 183 36)" fill="#8419FF"/>
        <circle opacity="0.4" cx="1.5" cy="1.5" r="1.5" transform="matrix(-1 0 0 1 171 36)" fill="#8419FF"/>
        <circle opacity="0.4" cx="1.5" cy="1.5" r="1.5" transform="matrix(-1 0 0 1 159 36)" fill="#8419FF"/>
        <circle opacity="0.4" cx="1.5" cy="1.5" r="1.5" transform="matrix(-1 0 0 1 147 36)" fill="#8419FF"/>
        <circle opacity="0.6" cx="1.5" cy="1.5" r="1.5" transform="matrix(-1 0 0 1 279 48)" fill="#8419FF"/>
        <circle opacity="0.2" cx="1.5" cy="1.5" r="1.5" transform="matrix(-1 0 0 1 267 48)" fill="#8419FF"/>
        <circle opacity="0.2" cx="1.5" cy="1.5" r="1.5" transform="matrix(-1 0 0 1 255 48)" fill="#8419FF"/>
        <circle opacity="0.4" cx="1.5" cy="1.5" r="1.5" transform="matrix(-1 0 0 1 243 48)" fill="#8419FF"/>
        <circle opacity="0.2" cx="1.5" cy="1.5" r="1.5" transform="matrix(-1 0 0 1 231 48)" fill="#8419FF"/>
        <circle opacity="0.8" cx="1.5" cy="1.5" r="1.5" transform="matrix(-1 0 0 1 219 48)" fill="#8419FF"/>
        <circle opacity="0.6" cx="1.5" cy="1.5" r="1.5" transform="matrix(-1 0 0 1 207 48)" fill="#8419FF"/>
        <circle opacity="0.6" cx="1.5" cy="1.5" r="1.5" transform="matrix(-1 0 0 1 195 48)" fill="#8419FF"/>
        <circle opacity="0.4" cx="1.5" cy="1.5" r="1.5" transform="matrix(-1 0 0 1 183 48)" fill="#8419FF"/>
        <circle opacity="0.1" cx="1.5" cy="1.5" r="1.5" transform="matrix(-1 0 0 1 171 48)" fill="#8419FF"/>
        <circle opacity="0.8" cx="1.5" cy="1.5" r="1.5" transform="matrix(-1 0 0 1 159 48)" fill="#8419FF"/>
        <circle opacity="0.6" cx="1.5" cy="1.5" r="1.5" transform="matrix(-1 0 0 1 147 48)" fill="#8419FF"/>
        <circle opacity="0.1" cx="1.5" cy="1.5" r="1.5" transform="matrix(-1 0 0 1 279 60)" fill="#8419FF"/>
        <circle opacity="0.8" cx="1.5" cy="1.5" r="1.5" transform="matrix(-1 0 0 1 267 60)" fill="#8419FF"/>
        <circle opacity="0.2" cx="1.5" cy="1.5" r="1.5" transform="matrix(-1 0 0 1 255 60)" fill="#8419FF"/>
        <circle opacity="0.8" cx="1.5" cy="1.5" r="1.5" transform="matrix(-1 0 0 1 243 60)" fill="#8419FF"/>
        <circle opacity="0.8" cx="1.5" cy="1.5" r="1.5" transform="matrix(-1 0 0 1 231 60)" fill="#8419FF"/>
        <circle opacity="0.4" cx="1.5" cy="1.5" r="1.5" transform="matrix(-1 0 0 1 219 60)" fill="#8419FF"/>
        <circle opacity="0.6" cx="1.5" cy="1.5" r="1.5" transform="matrix(-1 0 0 1 207 60)" fill="#8419FF"/>
        <circle opacity="0.6" cx="1.5" cy="1.5" r="1.5" transform="matrix(-1 0 0 1 195 60)" fill="#8419FF"/>
        <circle opacity="0.4" cx="1.5" cy="1.5" r="1.5" transform="matrix(-1 0 0 1 183 60)" fill="#8419FF"/>
        <circle opacity="0.2" cx="1.5" cy="1.5" r="1.5" transform="matrix(-1 0 0 1 171 60)" fill="#8419FF"/>
        <circle opacity="0.6" cx="1.5" cy="1.5" r="1.5" transform="matrix(-1 0 0 1 159 60)" fill="#8419FF"/>
        <circle opacity="0.6" cx="1.5" cy="1.5" r="1.5" transform="matrix(-1 0 0 1 147 60)" fill="#8419FF"/>
        <circle opacity="0.1" cx="1.5" cy="1.5" r="1.5" transform="matrix(-1 0 0 1 279 72)" fill="#8419FF"/>
        <circle opacity="0.1" cx="1.5" cy="1.5" r="1.5" transform="matrix(-1 0 0 1 267 72)" fill="#8419FF"/>
        <circle opacity="0.1" cx="1.5" cy="1.5" r="1.5" transform="matrix(-1 0 0 1 255 72)" fill="#8419FF"/>
        <circle opacity="0.4" cx="1.5" cy="1.5" r="1.5" transform="matrix(-1 0 0 1 243 72)" fill="#8419FF"/>
        <circle opacity="0.2" cx="1.5" cy="1.5" r="1.5" transform="matrix(-1 0 0 1 231 72)" fill="#8419FF"/>
        <circle opacity="0.6" cx="1.5" cy="1.5" r="1.5" transform="matrix(-1 0 0 1 219 72)" fill="#8419FF"/>
        <circle opacity="0.4" cx="1.5" cy="1.5" r="1.5" transform="matrix(-1 0 0 1 207 72)" fill="#8419FF"/>
        <circle opacity="0.2" cx="1.5" cy="1.5" r="1.5" transform="matrix(-1 0 0 1 195 72)" fill="#8419FF"/>
        <circle opacity="0.1" cx="1.5" cy="1.5" r="1.5" transform="matrix(-1 0 0 1 183 72)" fill="#8419FF"/>
        <circle opacity="0.4" cx="1.5" cy="1.5" r="1.5" transform="matrix(-1 0 0 1 171 72)" fill="#8419FF"/>
        <circle opacity="0.6" cx="1.5" cy="1.5" r="1.5" transform="matrix(-1 0 0 1 159 72)" fill="#8419FF"/>
        <circle opacity="0.6" cx="1.5" cy="1.5" r="1.5" transform="matrix(-1 0 0 1 147 72)" fill="#8419FF"/>
        <circle opacity="0.8" cx="1.5" cy="1.5" r="1.5" transform="matrix(-1 0 0 1 279 84)" fill="#8419FF"/>
        <circle opacity="0.4" cx="1.5" cy="1.5" r="1.5" transform="matrix(-1 0 0 1 267 84)" fill="#8419FF"/>
        <circle opacity="0.4" cx="1.5" cy="1.5" r="1.5" transform="matrix(-1 0 0 1 255 84)" fill="#8419FF"/>
        <circle opacity="0.6" cx="1.5" cy="1.5" r="1.5" transform="matrix(-1 0 0 1 243 84)" fill="#8419FF"/>
        <circle opacity="0.4" cx="1.5" cy="1.5" r="1.5" transform="matrix(-1 0 0 1 231 84)" fill="#8419FF"/>
        <circle opacity="0.1" cx="1.5" cy="1.5" r="1.5" transform="matrix(-1 0 0 1 219 84)" fill="#8419FF"/>
        <circle opacity="0.6" cx="1.5" cy="1.5" r="1.5" transform="matrix(-1 0 0 1 207 84)" fill="#8419FF"/>
        <circle opacity="0.6" cx="1.5" cy="1.5" r="1.5" transform="matrix(-1 0 0 1 195 84)" fill="#8419FF"/>
        <circle opacity="0.4" cx="1.5" cy="1.5" r="1.5" transform="matrix(-1 0 0 1 183 84)" fill="#8419FF"/>
        <circle opacity="0.6" cx="1.5" cy="1.5" r="1.5" transform="matrix(-1 0 0 1 171 84)" fill="#8419FF"/>
        <circle opacity="0.2" cx="1.5" cy="1.5" r="1.5" transform="matrix(-1 0 0 1 159 84)" fill="#8419FF"/>
        <circle opacity="0.8" cx="1.5" cy="1.5" r="1.5" transform="matrix(-1 0 0 1 147 84)" fill="#8419FF"/>
        <circle opacity="0.4" cx="1.5" cy="1.5" r="1.5" transform="matrix(-1 0 0 1 279 96)" fill="#8419FF"/>
        <circle opacity="0.4" cx="1.5" cy="1.5" r="1.5" transform="matrix(-1 0 0 1 267 96)" fill="#8419FF"/>
        <circle opacity="0.4" cx="1.5" cy="1.5" r="1.5" transform="matrix(-1 0 0 1 255 96)" fill="#8419FF"/>
        <circle opacity="0.4" cx="1.5" cy="1.5" r="1.5" transform="matrix(-1 0 0 1 243 96)" fill="#8419FF"/>
        <circle opacity="0.6" cx="1.5" cy="1.5" r="1.5" transform="matrix(-1 0 0 1 231 96)" fill="#8419FF"/>
        <circle opacity="0.2" cx="1.5" cy="1.5" r="1.5" transform="matrix(-1 0 0 1 219 96)" fill="#8419FF"/>
        <circle opacity="0.1" cx="1.5" cy="1.5" r="1.5" transform="matrix(-1 0 0 1 207 96)" fill="#8419FF"/>
        <circle opacity="0.4" cx="1.5" cy="1.5" r="1.5" transform="matrix(-1 0 0 1 195 96)" fill="#8419FF"/>
        <circle opacity="0.6" cx="1.5" cy="1.5" r="1.5" transform="matrix(-1 0 0 1 183 96)" fill="#8419FF"/>
        <circle opacity="0.2" cx="1.5" cy="1.5" r="1.5" transform="matrix(-1 0 0 1 171 96)" fill="#8419FF"/>
        <circle opacity="0.6" cx="1.5" cy="1.5" r="1.5" transform="matrix(-1 0 0 1 159 96)" fill="#8419FF"/>
        <circle opacity="0.2" cx="1.5" cy="1.5" r="1.5" transform="matrix(-1 0 0 1 147 96)" fill="#8419FF"/>
        <circle opacity="0.8" cx="1.5" cy="1.5" r="1.5" transform="matrix(-1 0 0 1 279 108)" fill="#8419FF"/>
        <circle opacity="0.6" cx="1.5" cy="1.5" r="1.5" transform="matrix(-1 0 0 1 267 108)" fill="#8419FF"/>
        <circle opacity="0.2" cx="1.5" cy="1.5" r="1.5" transform="matrix(-1 0 0 1 255 108)" fill="#8419FF"/>
        <circle opacity="0.2" cx="1.5" cy="1.5" r="1.5" transform="matrix(-1 0 0 1 243 108)" fill="#8419FF"/>
        <circle opacity="0.8" cx="1.5" cy="1.5" r="1.5" transform="matrix(-1 0 0 1 231 108)" fill="#8419FF"/>
        <circle opacity="0.4" cx="1.5" cy="1.5" r="1.5" transform="matrix(-1 0 0 1 219 108)" fill="#8419FF"/>
        <circle opacity="0.2" cx="1.5" cy="1.5" r="1.5" transform="matrix(-1 0 0 1 207 108)" fill="#8419FF"/>
        <circle opacity="0.4" cx="1.5" cy="1.5" r="1.5" transform="matrix(-1 0 0 1 195 108)" fill="#8419FF"/>
        <circle opacity="0.4" cx="1.5" cy="1.5" r="1.5" transform="matrix(-1 0 0 1 183 108)" fill="#8419FF"/>
        <circle opacity="0.2" cx="1.5" cy="1.5" r="1.5" transform="matrix(-1 0 0 1 171 108)" fill="#8419FF"/>
        <circle opacity="0.2" cx="1.5" cy="1.5" r="1.5" transform="matrix(-1 0 0 1 159 108)" fill="#8419FF"/>
        <circle opacity="0.1" cx="1.5" cy="1.5" r="1.5" transform="matrix(-1 0 0 1 147 108)" fill="#8419FF"/>
        <circle opacity="0.1" cx="1.5" cy="1.5" r="1.5" transform="matrix(-1 0 0 1 279 120)" fill="#8419FF"/>
        <circle opacity="0.2" cx="1.5" cy="1.5" r="1.5" transform="matrix(-1 0 0 1 267 120)" fill="#8419FF"/>
        <circle opacity="0.2" cx="1.5" cy="1.5" r="1.5" transform="matrix(-1 0 0 1 255 120)" fill="#8419FF"/>
        <circle opacity="0.2" cx="1.5" cy="1.5" r="1.5" transform="matrix(-1 0 0 1 243 120)" fill="#8419FF"/>
        <circle opacity="0.6" cx="1.5" cy="1.5" r="1.5" transform="matrix(-1 0 0 1 231 120)" fill="#8419FF"/>
        <circle opacity="0.4" cx="1.5" cy="1.5" r="1.5" transform="matrix(-1 0 0 1 219 120)" fill="#8419FF"/>
        <circle opacity="0.4" cx="1.5" cy="1.5" r="1.5" transform="matrix(-1 0 0 1 207 120)" fill="#8419FF"/>
        <circle opacity="0.8" cx="1.5" cy="1.5" r="1.5" transform="matrix(-1 0 0 1 195 120)" fill="#8419FF"/>
        <circle opacity="0.6" cx="1.5" cy="1.5" r="1.5" transform="matrix(-1 0 0 1 183 120)" fill="#8419FF"/>
        <circle opacity="0.2" cx="1.5" cy="1.5" r="1.5" transform="matrix(-1 0 0 1 171 120)" fill="#8419FF"/>
        <circle opacity="0.6" cx="1.5" cy="1.5" r="1.5" transform="matrix(-1 0 0 1 159 120)" fill="#8419FF"/>
        <circle opacity="0.4" cx="1.5" cy="1.5" r="1.5" transform="matrix(-1 0 0 1 147 120)" fill="#8419FF"/>
        <circle opacity="0.4" cx="1.5" cy="1.5" r="1.5" transform="matrix(-1 0 0 1 279 132)" fill="#8419FF"/>
        <circle opacity="0.6" cx="1.5" cy="1.5" r="1.5" transform="matrix(-1 0 0 1 267 132)" fill="#8419FF"/>
        <circle opacity="0.1" cx="1.5" cy="1.5" r="1.5" transform="matrix(-1 0 0 1 255 132)" fill="#8419FF"/>
        <circle opacity="0.4" cx="1.5" cy="1.5" r="1.5" transform="matrix(-1 0 0 1 243 132)" fill="#8419FF"/>
        <circle opacity="0.4" cx="1.5" cy="1.5" r="1.5" transform="matrix(-1 0 0 1 231 132)" fill="#8419FF"/>
        <circle opacity="0.6" cx="1.5" cy="1.5" r="1.5" transform="matrix(-1 0 0 1 219 132)" fill="#8419FF"/>
        <circle opacity="0.6" cx="1.5" cy="1.5" r="1.5" transform="matrix(-1 0 0 1 207 132)" fill="#8419FF"/>
        <circle opacity="0.4" cx="1.5" cy="1.5" r="1.5" transform="matrix(-1 0 0 1 195 132)" fill="#8419FF"/>
        <circle opacity="0.8" cx="1.5" cy="1.5" r="1.5" transform="matrix(-1 0 0 1 183 132)" fill="#8419FF"/>
        <circle opacity="0.8" cx="1.5" cy="1.5" r="1.5" transform="matrix(-1 0 0 1 171 132)" fill="#8419FF"/>
        <circle opacity="0.2" cx="1.5" cy="1.5" r="1.5" transform="matrix(-1 0 0 1 159 132)" fill="#8419FF"/>
        <circle opacity="0.2" cx="1.5" cy="1.5" r="1.5" transform="matrix(-1 0 0 1 147 132)" fill="#8419FF"/>
    </g>
    <defs>
        <radialGradient id="paint0_radial_259_7320" cx="0" cy="0" r="1" gradientUnits="userSpaceOnUse"
                        gradientTransform="translate(255 0.499997) rotate(129.532) scale(174.388)">
            <stop stop-color="#C4C4C4" stop-opacity="0.6"/>
            <stop offset="0.307292" stop-color="#C4C4C4" stop-opacity="0.4"/>
            <stop offset="1" stop-color="#C4C4C4" stop-opacity="0"/>
        </radialGradient>
    </defs>
</svg>
