<svg width="279" height="135" viewBox="0 0 279 135" fill="none" xmlns="http://www.w3.org/2000/svg">
<mask id="mask0_259_8274" style="mask-type:alpha" maskUnits="userSpaceOnUse" x="0" y="0" width="279" height="135">
<rect width="279" height="135" fill="url(#paint0_radial_259_8274)"/>
</mask>
<g mask="url(#mask0_259_8274)">
<circle opacity="0.4" cx="145.5" cy="1.5" r="1.5" fill="white"/>
<circle opacity="0.2" cx="157.5" cy="1.5" r="1.5" fill="white"/>
<circle opacity="0.4" cx="169.5" cy="1.5" r="1.5" fill="white"/>
<circle opacity="0.4" cx="181.5" cy="1.5" r="1.5" fill="white"/>
<circle opacity="0.2" cx="193.5" cy="1.5" r="1.5" fill="white"/>
<circle opacity="0.4" cx="205.5" cy="1.5" r="1.5" fill="white"/>
<circle opacity="0.6" cx="217.5" cy="1.5" r="1.5" fill="white"/>
<circle opacity="0.6" cx="229.5" cy="1.5" r="1.5" fill="white"/>
<circle opacity="0.4" cx="241.5" cy="1.5" r="1.5" fill="white"/>
<circle opacity="0.8" cx="253.5" cy="1.5" r="1.5" fill="white"/>
<circle opacity="0.1" cx="265.5" cy="1.5" r="1.5" fill="white"/>
<circle opacity="0.4" cx="277.5" cy="1.5" r="1.5" fill="white"/>
<circle opacity="0.6" cx="145.5" cy="13.5" r="1.5" fill="white"/>
<circle opacity="0.4" cx="157.5" cy="13.5" r="1.5" fill="white"/>
<circle opacity="0.8" cx="169.5" cy="13.5" r="1.5" fill="white"/>
<circle opacity="0.4" cx="181.5" cy="13.5" r="1.5" fill="white"/>
<circle opacity="0.1" cx="193.5" cy="13.5" r="1.5" fill="white"/>
<circle opacity="0.4" cx="205.5" cy="13.5" r="1.5" fill="white"/>
<circle opacity="0.4" cx="217.5" cy="13.5" r="1.5" fill="white"/>
<circle opacity="0.2" cx="229.5" cy="13.5" r="1.5" fill="white"/>
<circle opacity="0.4" cx="241.5" cy="13.5" r="1.5" fill="white"/>
<circle opacity="0.4" cx="253.5" cy="13.5" r="1.5" fill="white"/>
<circle opacity="0.1" cx="265.5" cy="13.5" r="1.5" fill="white"/>
<circle opacity="0.4" cx="277.5" cy="13.5" r="1.5" fill="white"/>
<circle opacity="0.2" cx="145.5" cy="25.5" r="1.5" fill="white"/>
<circle opacity="0.2" cx="157.5" cy="25.5" r="1.5" fill="white"/>
<circle opacity="0.2" cx="169.5" cy="25.5" r="1.5" fill="white"/>
<circle opacity="0.1" cx="181.5" cy="25.5" r="1.5" fill="white"/>
<circle opacity="0.4" cx="193.5" cy="25.5" r="1.5" fill="white"/>
<circle opacity="0.4" cx="205.5" cy="25.5" r="1.5" fill="white"/>
<circle opacity="0.6" cx="217.5" cy="25.5" r="1.5" fill="white"/>
<circle opacity="0.4" cx="229.5" cy="25.5" r="1.5" fill="white"/>
<circle opacity="0.2" cx="241.5" cy="25.5" r="1.5" fill="white"/>
<circle opacity="0.8" cx="253.5" cy="25.5" r="1.5" fill="white"/>
<circle opacity="0.6" cx="265.5" cy="25.5" r="1.5" fill="white"/>
<circle opacity="0.2" cx="277.5" cy="25.5" r="1.5" fill="white"/>
<circle opacity="0.6" cx="145.5" cy="37.5" r="1.5" fill="white"/>
<circle opacity="0.6" cx="157.5" cy="37.5" r="1.5" fill="white"/>
<circle opacity="0.2" cx="169.5" cy="37.5" r="1.5" fill="white"/>
<circle opacity="0.8" cx="181.5" cy="37.5" r="1.5" fill="white"/>
<circle opacity="0.4" cx="193.5" cy="37.5" r="1.5" fill="white"/>
<circle opacity="0.2" cx="205.5" cy="37.5" r="1.5" fill="white"/>
<circle opacity="0.1" cx="217.5" cy="37.5" r="1.5" fill="white"/>
<circle opacity="0.4" cx="229.5" cy="37.5" r="1.5" fill="white"/>
<circle opacity="0.4" cx="241.5" cy="37.5" r="1.5" fill="white"/>
<circle opacity="0.4" cx="253.5" cy="37.5" r="1.5" fill="white"/>
<circle opacity="0.4" cx="265.5" cy="37.5" r="1.5" fill="white"/>
<circle opacity="0.4" cx="277.5" cy="37.5" r="1.5" fill="white"/>
<circle opacity="0.6" cx="145.5" cy="49.5" r="1.5" fill="white"/>
<circle opacity="0.2" cx="157.5" cy="49.5" r="1.5" fill="white"/>
<circle opacity="0.2" cx="169.5" cy="49.5" r="1.5" fill="white"/>
<circle opacity="0.4" cx="181.5" cy="49.5" r="1.5" fill="white"/>
<circle opacity="0.2" cx="193.5" cy="49.5" r="1.5" fill="white"/>
<circle opacity="0.8" cx="205.5" cy="49.5" r="1.5" fill="white"/>
<circle opacity="0.6" cx="217.5" cy="49.5" r="1.5" fill="white"/>
<circle opacity="0.6" cx="229.5" cy="49.5" r="1.5" fill="white"/>
<circle opacity="0.4" cx="241.5" cy="49.5" r="1.5" fill="white"/>
<circle opacity="0.1" cx="253.5" cy="49.5" r="1.5" fill="white"/>
<circle opacity="0.8" cx="265.5" cy="49.5" r="1.5" fill="white"/>
<circle opacity="0.6" cx="277.5" cy="49.5" r="1.5" fill="white"/>
<circle opacity="0.1" cx="145.5" cy="61.5" r="1.5" fill="white"/>
<circle opacity="0.8" cx="157.5" cy="61.5" r="1.5" fill="white"/>
<circle opacity="0.2" cx="169.5" cy="61.5" r="1.5" fill="white"/>
<circle opacity="0.8" cx="181.5" cy="61.5" r="1.5" fill="white"/>
<circle opacity="0.8" cx="193.5" cy="61.5" r="1.5" fill="white"/>
<circle opacity="0.4" cx="205.5" cy="61.5" r="1.5" fill="white"/>
<circle opacity="0.6" cx="217.5" cy="61.5" r="1.5" fill="white"/>
<circle opacity="0.6" cx="229.5" cy="61.5" r="1.5" fill="white"/>
<circle opacity="0.4" cx="241.5" cy="61.5" r="1.5" fill="white"/>
<circle opacity="0.2" cx="253.5" cy="61.5" r="1.5" fill="white"/>
<circle opacity="0.6" cx="265.5" cy="61.5" r="1.5" fill="white"/>
<circle opacity="0.6" cx="277.5" cy="61.5" r="1.5" fill="white"/>
<circle opacity="0.1" cx="145.5" cy="73.5" r="1.5" fill="white"/>
<circle opacity="0.1" cx="157.5" cy="73.5" r="1.5" fill="white"/>
<circle opacity="0.1" cx="169.5" cy="73.5" r="1.5" fill="white"/>
<circle opacity="0.4" cx="181.5" cy="73.5" r="1.5" fill="white"/>
<circle opacity="0.2" cx="193.5" cy="73.5" r="1.5" fill="white"/>
<circle opacity="0.6" cx="205.5" cy="73.5" r="1.5" fill="white"/>
<circle opacity="0.4" cx="217.5" cy="73.5" r="1.5" fill="white"/>
<circle opacity="0.2" cx="229.5" cy="73.5" r="1.5" fill="white"/>
<circle opacity="0.1" cx="241.5" cy="73.5" r="1.5" fill="white"/>
<circle opacity="0.4" cx="253.5" cy="73.5" r="1.5" fill="white"/>
<circle opacity="0.6" cx="265.5" cy="73.5" r="1.5" fill="white"/>
<circle opacity="0.6" cx="277.5" cy="73.5" r="1.5" fill="white"/>
<circle opacity="0.8" cx="145.5" cy="85.5" r="1.5" fill="white"/>
<circle opacity="0.4" cx="157.5" cy="85.5" r="1.5" fill="white"/>
<circle opacity="0.4" cx="169.5" cy="85.5" r="1.5" fill="white"/>
<circle opacity="0.6" cx="181.5" cy="85.5" r="1.5" fill="white"/>
<circle opacity="0.4" cx="193.5" cy="85.5" r="1.5" fill="white"/>
<circle opacity="0.1" cx="205.5" cy="85.5" r="1.5" fill="white"/>
<circle opacity="0.6" cx="217.5" cy="85.5" r="1.5" fill="white"/>
<circle opacity="0.6" cx="229.5" cy="85.5" r="1.5" fill="white"/>
<circle opacity="0.4" cx="241.5" cy="85.5" r="1.5" fill="white"/>
<circle opacity="0.6" cx="253.5" cy="85.5" r="1.5" fill="white"/>
<circle opacity="0.2" cx="265.5" cy="85.5" r="1.5" fill="white"/>
<circle opacity="0.8" cx="277.5" cy="85.5" r="1.5" fill="white"/>
<circle opacity="0.4" cx="145.5" cy="97.5" r="1.5" fill="white"/>
<circle opacity="0.4" cx="157.5" cy="97.5" r="1.5" fill="white"/>
<circle opacity="0.4" cx="169.5" cy="97.5" r="1.5" fill="white"/>
<circle opacity="0.4" cx="181.5" cy="97.5" r="1.5" fill="white"/>
<circle opacity="0.6" cx="193.5" cy="97.5" r="1.5" fill="white"/>
<circle opacity="0.2" cx="205.5" cy="97.5" r="1.5" fill="white"/>
<circle opacity="0.1" cx="217.5" cy="97.5" r="1.5" fill="white"/>
<circle opacity="0.4" cx="229.5" cy="97.5" r="1.5" fill="white"/>
<circle opacity="0.6" cx="241.5" cy="97.5" r="1.5" fill="white"/>
<circle opacity="0.2" cx="253.5" cy="97.5" r="1.5" fill="white"/>
<circle opacity="0.6" cx="265.5" cy="97.5" r="1.5" fill="white"/>
<circle opacity="0.2" cx="277.5" cy="97.5" r="1.5" fill="white"/>
<circle opacity="0.8" cx="145.5" cy="109.5" r="1.5" fill="white"/>
<circle opacity="0.6" cx="157.5" cy="109.5" r="1.5" fill="white"/>
<circle opacity="0.2" cx="169.5" cy="109.5" r="1.5" fill="white"/>
<circle opacity="0.2" cx="181.5" cy="109.5" r="1.5" fill="white"/>
<circle opacity="0.8" cx="193.5" cy="109.5" r="1.5" fill="white"/>
<circle opacity="0.4" cx="205.5" cy="109.5" r="1.5" fill="white"/>
<circle opacity="0.2" cx="217.5" cy="109.5" r="1.5" fill="white"/>
<circle opacity="0.4" cx="229.5" cy="109.5" r="1.5" fill="white"/>
<circle opacity="0.4" cx="241.5" cy="109.5" r="1.5" fill="white"/>
<circle opacity="0.2" cx="253.5" cy="109.5" r="1.5" fill="white"/>
<circle opacity="0.2" cx="265.5" cy="109.5" r="1.5" fill="white"/>
<circle opacity="0.1" cx="277.5" cy="109.5" r="1.5" fill="white"/>
<circle opacity="0.1" cx="145.5" cy="121.5" r="1.5" fill="white"/>
<circle opacity="0.2" cx="157.5" cy="121.5" r="1.5" fill="white"/>
<circle opacity="0.2" cx="169.5" cy="121.5" r="1.5" fill="white"/>
<circle opacity="0.2" cx="181.5" cy="121.5" r="1.5" fill="white"/>
<circle opacity="0.6" cx="193.5" cy="121.5" r="1.5" fill="white"/>
<circle opacity="0.4" cx="205.5" cy="121.5" r="1.5" fill="white"/>
<circle opacity="0.4" cx="217.5" cy="121.5" r="1.5" fill="white"/>
<circle opacity="0.8" cx="229.5" cy="121.5" r="1.5" fill="white"/>
<circle opacity="0.6" cx="241.5" cy="121.5" r="1.5" fill="white"/>
<circle opacity="0.2" cx="253.5" cy="121.5" r="1.5" fill="white"/>
<circle opacity="0.6" cx="265.5" cy="121.5" r="1.5" fill="white"/>
<circle opacity="0.4" cx="277.5" cy="121.5" r="1.5" fill="white"/>
<circle opacity="0.4" cx="145.5" cy="133.5" r="1.5" fill="white"/>
<circle opacity="0.6" cx="157.5" cy="133.5" r="1.5" fill="white"/>
<circle opacity="0.1" cx="169.5" cy="133.5" r="1.5" fill="white"/>
<circle opacity="0.4" cx="181.5" cy="133.5" r="1.5" fill="white"/>
<circle opacity="0.4" cx="193.5" cy="133.5" r="1.5" fill="white"/>
<circle opacity="0.6" cx="205.5" cy="133.5" r="1.5" fill="white"/>
<circle opacity="0.6" cx="217.5" cy="133.5" r="1.5" fill="white"/>
<circle opacity="0.4" cx="229.5" cy="133.5" r="1.5" fill="white"/>
<circle opacity="0.8" cx="241.5" cy="133.5" r="1.5" fill="white"/>
<circle opacity="0.8" cx="253.5" cy="133.5" r="1.5" fill="white"/>
<circle opacity="0.2" cx="265.5" cy="133.5" r="1.5" fill="white"/>
<circle opacity="0.2" cx="277.5" cy="133.5" r="1.5" fill="white"/>
<circle opacity="0.4" cx="1.5" cy="1.5" r="1.5" fill="white"/>
<circle opacity="0.2" cx="13.5" cy="1.5" r="1.5" fill="white"/>
<circle opacity="0.4" cx="25.5" cy="1.5" r="1.5" fill="white"/>
<circle opacity="0.4" cx="37.5" cy="1.5" r="1.5" fill="white"/>
<circle opacity="0.2" cx="49.5" cy="1.5" r="1.5" fill="white"/>
<circle opacity="0.4" cx="61.5" cy="1.5" r="1.5" fill="white"/>
<circle opacity="0.6" cx="73.5" cy="1.5" r="1.5" fill="white"/>
<circle opacity="0.6" cx="85.5" cy="1.5" r="1.5" fill="white"/>
<circle opacity="0.4" cx="97.5" cy="1.5" r="1.5" fill="white"/>
<circle opacity="0.8" cx="109.5" cy="1.5" r="1.5" fill="white"/>
<circle opacity="0.1" cx="121.5" cy="1.5" r="1.5" fill="white"/>
<circle opacity="0.4" cx="133.5" cy="1.5" r="1.5" fill="white"/>
<circle opacity="0.6" cx="1.5" cy="13.5" r="1.5" fill="white"/>
<circle opacity="0.4" cx="13.5" cy="13.5" r="1.5" fill="white"/>
<circle opacity="0.8" cx="25.5" cy="13.5" r="1.5" fill="white"/>
<circle opacity="0.4" cx="37.5" cy="13.5" r="1.5" fill="white"/>
<circle opacity="0.1" cx="49.5" cy="13.5" r="1.5" fill="white"/>
<circle opacity="0.4" cx="61.5" cy="13.5" r="1.5" fill="white"/>
<circle opacity="0.4" cx="73.5" cy="13.5" r="1.5" fill="white"/>
<circle opacity="0.2" cx="85.5" cy="13.5" r="1.5" fill="white"/>
<circle opacity="0.4" cx="97.5" cy="13.5" r="1.5" fill="white"/>
<circle opacity="0.4" cx="109.5" cy="13.5" r="1.5" fill="white"/>
<circle opacity="0.1" cx="121.5" cy="13.5" r="1.5" fill="white"/>
<circle opacity="0.4" cx="133.5" cy="13.5" r="1.5" fill="white"/>
<circle opacity="0.2" cx="1.5" cy="25.5" r="1.5" fill="white"/>
<circle opacity="0.2" cx="13.5" cy="25.5" r="1.5" fill="white"/>
<circle opacity="0.2" cx="25.5" cy="25.5" r="1.5" fill="white"/>
<circle opacity="0.1" cx="37.5" cy="25.5" r="1.5" fill="white"/>
<circle opacity="0.4" cx="49.5" cy="25.5" r="1.5" fill="white"/>
<circle opacity="0.4" cx="61.5" cy="25.5" r="1.5" fill="white"/>
<circle opacity="0.6" cx="73.5" cy="25.5" r="1.5" fill="white"/>
<circle opacity="0.4" cx="85.5" cy="25.5" r="1.5" fill="white"/>
<circle opacity="0.2" cx="97.5" cy="25.5" r="1.5" fill="white"/>
<circle opacity="0.8" cx="109.5" cy="25.5" r="1.5" fill="white"/>
<circle opacity="0.6" cx="121.5" cy="25.5" r="1.5" fill="white"/>
<circle opacity="0.2" cx="133.5" cy="25.5" r="1.5" fill="white"/>
<circle opacity="0.6" cx="1.5" cy="37.5" r="1.5" fill="white"/>
<circle opacity="0.6" cx="13.5" cy="37.5" r="1.5" fill="white"/>
<circle opacity="0.2" cx="25.5" cy="37.5" r="1.5" fill="white"/>
<circle opacity="0.8" cx="37.5" cy="37.5" r="1.5" fill="white"/>
<circle opacity="0.4" cx="49.5" cy="37.5" r="1.5" fill="white"/>
<circle opacity="0.2" cx="61.5" cy="37.5" r="1.5" fill="white"/>
<circle opacity="0.1" cx="73.5" cy="37.5" r="1.5" fill="white"/>
<circle opacity="0.4" cx="85.5" cy="37.5" r="1.5" fill="white"/>
<circle opacity="0.4" cx="97.5" cy="37.5" r="1.5" fill="white"/>
<circle opacity="0.4" cx="109.5" cy="37.5" r="1.5" fill="white"/>
<circle opacity="0.4" cx="121.5" cy="37.5" r="1.5" fill="white"/>
<circle opacity="0.4" cx="133.5" cy="37.5" r="1.5" fill="white"/>
<circle opacity="0.6" cx="1.5" cy="49.5" r="1.5" fill="white"/>
<circle opacity="0.2" cx="13.5" cy="49.5" r="1.5" fill="white"/>
<circle opacity="0.2" cx="25.5" cy="49.5" r="1.5" fill="white"/>
<circle opacity="0.4" cx="37.5" cy="49.5" r="1.5" fill="white"/>
<circle opacity="0.2" cx="49.5" cy="49.5" r="1.5" fill="white"/>
<circle opacity="0.8" cx="61.5" cy="49.5" r="1.5" fill="white"/>
<circle opacity="0.6" cx="73.5" cy="49.5" r="1.5" fill="white"/>
<circle opacity="0.6" cx="85.5" cy="49.5" r="1.5" fill="white"/>
<circle opacity="0.4" cx="97.5" cy="49.5" r="1.5" fill="white"/>
<circle opacity="0.1" cx="109.5" cy="49.5" r="1.5" fill="white"/>
<circle opacity="0.8" cx="121.5" cy="49.5" r="1.5" fill="white"/>
<circle opacity="0.6" cx="133.5" cy="49.5" r="1.5" fill="white"/>
<circle opacity="0.1" cx="1.5" cy="61.5" r="1.5" fill="white"/>
<circle opacity="0.8" cx="13.5" cy="61.5" r="1.5" fill="white"/>
<circle opacity="0.2" cx="25.5" cy="61.5" r="1.5" fill="white"/>
<circle opacity="0.8" cx="37.5" cy="61.5" r="1.5" fill="white"/>
<circle opacity="0.8" cx="49.5" cy="61.5" r="1.5" fill="white"/>
<circle opacity="0.4" cx="61.5" cy="61.5" r="1.5" fill="white"/>
<circle opacity="0.6" cx="73.5" cy="61.5" r="1.5" fill="white"/>
<circle opacity="0.6" cx="85.5" cy="61.5" r="1.5" fill="white"/>
<circle opacity="0.4" cx="97.5" cy="61.5" r="1.5" fill="white"/>
<circle opacity="0.2" cx="109.5" cy="61.5" r="1.5" fill="white"/>
<circle opacity="0.6" cx="121.5" cy="61.5" r="1.5" fill="white"/>
<circle opacity="0.6" cx="133.5" cy="61.5" r="1.5" fill="white"/>
<circle opacity="0.1" cx="1.5" cy="73.5" r="1.5" fill="white"/>
<circle opacity="0.1" cx="13.5" cy="73.5" r="1.5" fill="white"/>
<circle opacity="0.1" cx="25.5" cy="73.5" r="1.5" fill="white"/>
<circle opacity="0.4" cx="37.5" cy="73.5" r="1.5" fill="white"/>
<circle opacity="0.2" cx="49.5" cy="73.5" r="1.5" fill="white"/>
<circle opacity="0.6" cx="61.5" cy="73.5" r="1.5" fill="white"/>
<circle opacity="0.4" cx="73.5" cy="73.5" r="1.5" fill="white"/>
<circle opacity="0.2" cx="85.5" cy="73.5" r="1.5" fill="white"/>
<circle opacity="0.1" cx="97.5" cy="73.5" r="1.5" fill="white"/>
<circle opacity="0.4" cx="109.5" cy="73.5" r="1.5" fill="white"/>
<circle opacity="0.6" cx="121.5" cy="73.5" r="1.5" fill="white"/>
<circle opacity="0.6" cx="133.5" cy="73.5" r="1.5" fill="white"/>
<circle opacity="0.8" cx="1.5" cy="85.5" r="1.5" fill="white"/>
<circle opacity="0.4" cx="13.5" cy="85.5" r="1.5" fill="white"/>
<circle opacity="0.4" cx="25.5" cy="85.5" r="1.5" fill="white"/>
<circle opacity="0.6" cx="37.5" cy="85.5" r="1.5" fill="white"/>
<circle opacity="0.4" cx="49.5" cy="85.5" r="1.5" fill="white"/>
<circle opacity="0.1" cx="61.5" cy="85.5" r="1.5" fill="white"/>
<circle opacity="0.6" cx="73.5" cy="85.5" r="1.5" fill="white"/>
<circle opacity="0.6" cx="85.5" cy="85.5" r="1.5" fill="white"/>
<circle opacity="0.4" cx="97.5" cy="85.5" r="1.5" fill="white"/>
<circle opacity="0.6" cx="109.5" cy="85.5" r="1.5" fill="white"/>
<circle opacity="0.2" cx="121.5" cy="85.5" r="1.5" fill="white"/>
<circle opacity="0.8" cx="133.5" cy="85.5" r="1.5" fill="white"/>
<circle opacity="0.4" cx="1.5" cy="97.5" r="1.5" fill="white"/>
<circle opacity="0.4" cx="13.5" cy="97.5" r="1.5" fill="white"/>
<circle opacity="0.4" cx="25.5" cy="97.5" r="1.5" fill="white"/>
<circle opacity="0.4" cx="37.5" cy="97.5" r="1.5" fill="white"/>
<circle opacity="0.6" cx="49.5" cy="97.5" r="1.5" fill="white"/>
<circle opacity="0.2" cx="61.5" cy="97.5" r="1.5" fill="white"/>
<circle opacity="0.1" cx="73.5" cy="97.5" r="1.5" fill="white"/>
<circle opacity="0.4" cx="85.5" cy="97.5" r="1.5" fill="white"/>
<circle opacity="0.6" cx="97.5" cy="97.5" r="1.5" fill="white"/>
<circle opacity="0.2" cx="109.5" cy="97.5" r="1.5" fill="white"/>
<circle opacity="0.6" cx="121.5" cy="97.5" r="1.5" fill="white"/>
<circle opacity="0.2" cx="133.5" cy="97.5" r="1.5" fill="white"/>
<circle opacity="0.8" cx="1.5" cy="109.5" r="1.5" fill="white"/>
<circle opacity="0.6" cx="13.5" cy="109.5" r="1.5" fill="white"/>
<circle opacity="0.2" cx="25.5" cy="109.5" r="1.5" fill="white"/>
<circle opacity="0.2" cx="37.5" cy="109.5" r="1.5" fill="white"/>
<circle opacity="0.8" cx="49.5" cy="109.5" r="1.5" fill="white"/>
<circle opacity="0.4" cx="61.5" cy="109.5" r="1.5" fill="white"/>
<circle opacity="0.2" cx="73.5" cy="109.5" r="1.5" fill="white"/>
<circle opacity="0.4" cx="85.5" cy="109.5" r="1.5" fill="white"/>
<circle opacity="0.4" cx="97.5" cy="109.5" r="1.5" fill="white"/>
<circle opacity="0.2" cx="109.5" cy="109.5" r="1.5" fill="white"/>
<circle opacity="0.2" cx="121.5" cy="109.5" r="1.5" fill="white"/>
<circle opacity="0.1" cx="133.5" cy="109.5" r="1.5" fill="white"/>
<circle opacity="0.1" cx="1.5" cy="121.5" r="1.5" fill="white"/>
<circle opacity="0.2" cx="13.5" cy="121.5" r="1.5" fill="white"/>
<circle opacity="0.2" cx="25.5" cy="121.5" r="1.5" fill="white"/>
<circle opacity="0.2" cx="37.5" cy="121.5" r="1.5" fill="white"/>
<circle opacity="0.6" cx="49.5" cy="121.5" r="1.5" fill="white"/>
<circle opacity="0.4" cx="61.5" cy="121.5" r="1.5" fill="white"/>
<circle opacity="0.4" cx="73.5" cy="121.5" r="1.5" fill="white"/>
<circle opacity="0.8" cx="85.5" cy="121.5" r="1.5" fill="white"/>
<circle opacity="0.6" cx="97.5" cy="121.5" r="1.5" fill="white"/>
<circle opacity="0.2" cx="109.5" cy="121.5" r="1.5" fill="white"/>
<circle opacity="0.6" cx="121.5" cy="121.5" r="1.5" fill="white"/>
<circle opacity="0.4" cx="133.5" cy="121.5" r="1.5" fill="white"/>
<circle opacity="0.4" cx="1.5" cy="133.5" r="1.5" fill="white"/>
<circle opacity="0.6" cx="13.5" cy="133.5" r="1.5" fill="white"/>
<circle opacity="0.1" cx="25.5" cy="133.5" r="1.5" fill="white"/>
<circle opacity="0.4" cx="37.5" cy="133.5" r="1.5" fill="white"/>
<circle opacity="0.4" cx="49.5" cy="133.5" r="1.5" fill="white"/>
<circle opacity="0.6" cx="61.5" cy="133.5" r="1.5" fill="white"/>
<circle opacity="0.6" cx="73.5" cy="133.5" r="1.5" fill="white"/>
<circle opacity="0.4" cx="85.5" cy="133.5" r="1.5" fill="white"/>
<circle opacity="0.8" cx="97.5" cy="133.5" r="1.5" fill="white"/>
<circle opacity="0.8" cx="109.5" cy="133.5" r="1.5" fill="white"/>
<circle opacity="0.2" cx="121.5" cy="133.5" r="1.5" fill="white"/>
<circle opacity="0.2" cx="133.5" cy="133.5" r="1.5" fill="white"/>
</g>
<defs>
<radialGradient id="paint0_radial_259_8274" cx="0" cy="0" r="1" gradientUnits="userSpaceOnUse" gradientTransform="translate(255 0.499997) rotate(129.532) scale(174.388)">
<stop stop-color="#C4C4C4" stop-opacity="0.6"/>
<stop offset="0.307292" stop-color="#C4C4C4" stop-opacity="0.4"/>
<stop offset="1" stop-color="#C4C4C4" stop-opacity="0"/>
</radialGradient>
</defs>
</svg>
