<svg width="51" height="50" viewBox="0 0 51 50" fill="none" xmlns="http://www.w3.org/2000/svg">
    <circle opacity="0.4" cx="6" cy="5" r="5" fill="#8419FF"/>
    <circle opacity="0.2" cx="26" cy="5" r="5" fill="#8419FF"/>
    <circle opacity="0.6" cx="26" cy="25" r="5" fill="#8419FF"/>
    <circle opacity="0.4" cx="46" cy="25" r="5" fill="#8419FF"/>
    <circle opacity="0.1" cx="6" cy="45" r="5" fill="#8419FF"/>
    <circle opacity="0.4" cx="26" cy="45" r="5" fill="#8419FF"/>
    <circle opacity="0.6" cx="46" cy="45" r="5" fill="#8419FF"/>
    <g opacity="0.1">
        <path opacity="0.7" d="M46 5.90905L41.909 10L41 9.09048L45.0905 5L41 0.909048L41.909 0L46 4.09048L50.0905 0L51 0.909048L46.909 5L51 9.09048L50.0905 10L46 5.90905Z" fill="#8419FF"/>
    </g>
    <path opacity="0.7" fill-rule="evenodd" clip-rule="evenodd" d="M10.7236 20.0529C10.9706 20.1764 11.0707 20.4767 10.9472 20.7237L5.44721 29.7237C5.37534 29.8675 5.23874 29.9679 5.08009 29.9937C4.92144 30.0194 4.76009 29.9673 4.64645 29.8537L1.14645 25.3537C0.951184 25.1584 0.951184 24.8418 1.14645 24.6466C1.34171 24.4513 1.65829 24.4513 1.85355 24.6466L4.86302 28.656L10.0528 20.2765C10.1763 20.0295 10.4766 19.9294 10.7236 20.0529Z" fill="#8419FF" stroke="#8419FF"/>
</svg>
