<svg width="352" height="62" viewBox="0 0 352 62" fill="none" xmlns="http://www.w3.org/2000/svg">
<g opacity="0.06">
<path d="M71.6953 3.89062L56.4219 61H49.7422L38.4141 22.5625C38.0755 21.4688 37.75 20.375 37.4375 19.2812C37.151 18.1615 36.8776 17.1068 36.6172 16.1172C36.3568 15.1016 36.1354 14.2161 35.9531 13.4609C35.7969 12.6797 35.6797 12.0938 35.6016 11.7031C35.5495 12.0938 35.4453 12.6667 35.2891 13.4219C35.1589 14.1771 34.9766 15.0495 34.7422 16.0391C34.5339 17.0286 34.2734 18.0833 33.9609 19.2031C33.6745 20.3229 33.362 21.4557 33.0234 22.6016L22.0078 61H15.3281L0.171875 3.89062H7.08594L16.2656 39.7109C16.5781 40.9089 16.8646 42.0938 17.125 43.2656C17.4115 44.4115 17.6589 45.5312 17.8672 46.625C18.1016 47.7188 18.3099 48.7865 18.4922 49.8281C18.6745 50.8698 18.8438 51.8854 19 52.875C19.1302 51.8594 19.2995 50.8047 19.5078 49.7109C19.7161 48.5911 19.9375 47.4583 20.1719 46.3125C20.4323 45.1667 20.7057 44.0078 20.9922 42.8359C21.3047 41.6641 21.6302 40.4922 21.9688 39.3203L32.2422 3.89062H39.0781L49.7812 39.5938C50.1458 40.8177 50.4844 42.0286 50.7969 43.2266C51.1094 44.4245 51.3828 45.5964 51.6172 46.7422C51.8776 47.862 52.099 48.9427 52.2812 49.9844C52.4896 51 52.6719 51.9635 52.8281 52.875C53.0104 51.599 53.2318 50.2578 53.4922 48.8516C53.7526 47.4453 54.0521 45.974 54.3906 44.4375C54.7552 42.901 55.1458 41.3125 55.5625 39.6719L64.7422 3.89062H71.6953Z" fill="white"/>
<path d="M96.2266 17.4062C99.8724 17.4062 102.997 18.2135 105.602 19.8281C108.206 21.4427 110.198 23.7083 111.578 26.625C112.958 29.5156 113.648 32.901 113.648 36.7812V40.8047H84.0781C84.1562 45.8307 85.4062 49.6589 87.8281 52.2891C90.25 54.9193 93.6615 56.2344 98.0625 56.2344C100.771 56.2344 103.167 55.987 105.25 55.4922C107.333 54.9974 109.495 54.2682 111.734 53.3047V59.0078C109.573 59.9714 107.424 60.6745 105.289 61.1172C103.18 61.5599 100.68 61.7812 97.7891 61.7812C93.6745 61.7812 90.0807 60.9479 87.0078 59.2812C83.9609 57.5885 81.5911 55.1146 79.8984 51.8594C78.2057 48.6042 77.3594 44.6198 77.3594 39.9062C77.3594 35.2969 78.1276 31.3125 79.6641 27.9531C81.2266 24.5677 83.4141 21.9635 86.2266 20.1406C89.0651 18.3177 92.3984 17.4062 96.2266 17.4062ZM96.1484 22.7188C92.6849 22.7188 89.9245 23.8516 87.8672 26.1172C85.8099 28.3828 84.5859 31.5469 84.1953 35.6094H106.852C106.826 33.0573 106.422 30.8177 105.641 28.8906C104.885 26.9375 103.727 25.4271 102.164 24.3594C100.602 23.2656 98.5964 22.7188 96.1484 22.7188Z" fill="white"/>
<path d="M131.188 61H124.664V0.21875H131.188V61Z" fill="white"/>
<path d="M162.047 61.7812C157.724 61.7812 154.039 61 150.992 59.4375C147.945 57.849 145.628 55.401 144.039 52.0938C142.451 48.7865 141.656 44.5547 141.656 39.3984C141.656 34.0599 142.555 29.7109 144.352 26.3516C146.174 22.9661 148.688 20.4792 151.891 18.8906C155.12 17.3021 158.857 16.5078 163.102 16.5078C166.122 16.5078 168.727 16.8073 170.914 17.4062C173.128 17.9792 175.055 18.6693 176.695 19.4766L173.18 28.6953C171.305 27.9401 169.56 27.3281 167.945 26.8594C166.331 26.3646 164.716 26.1172 163.102 26.1172C161.018 26.1172 159.286 26.612 157.906 27.6016C156.526 28.5651 155.497 30.0234 154.82 31.9766C154.143 33.9297 153.805 36.3776 153.805 39.3203C153.805 42.2109 154.169 44.6068 154.898 46.5078C155.628 48.4089 156.682 49.8281 158.062 50.7656C159.443 51.6771 161.122 52.1328 163.102 52.1328C165.576 52.1328 167.776 51.8073 169.703 51.1562C171.63 50.4792 173.505 49.5417 175.328 48.3438V58.5391C173.505 59.6849 171.591 60.5052 169.586 61C167.607 61.5208 165.094 61.7812 162.047 61.7812Z" fill="white"/>
<path d="M225.172 39.0859C225.172 42.7318 224.677 45.9609 223.688 48.7734C222.724 51.5859 221.305 53.9688 219.43 55.9219C217.581 57.849 215.341 59.3073 212.711 60.2969C210.107 61.2865 207.164 61.7812 203.883 61.7812C200.81 61.7812 197.984 61.2865 195.406 60.2969C192.854 59.3073 190.628 57.849 188.727 55.9219C186.852 53.9688 185.393 51.5859 184.352 48.7734C183.336 45.9609 182.828 42.7318 182.828 39.0859C182.828 34.2422 183.688 30.1406 185.406 26.7812C187.125 23.4219 189.573 20.8698 192.75 19.125C195.927 17.3802 199.716 16.5078 204.117 16.5078C208.206 16.5078 211.826 17.3802 214.977 19.125C218.154 20.8698 220.641 23.4219 222.438 26.7812C224.26 30.1406 225.172 34.2422 225.172 39.0859ZM194.977 39.0859C194.977 41.9505 195.289 44.3594 195.914 46.3125C196.539 48.2656 197.516 49.737 198.844 50.7266C200.172 51.7161 201.904 52.2109 204.039 52.2109C206.148 52.2109 207.854 51.7161 209.156 50.7266C210.484 49.737 211.448 48.2656 212.047 46.3125C212.672 44.3594 212.984 41.9505 212.984 39.0859C212.984 36.1953 212.672 33.7995 212.047 31.8984C211.448 29.9714 210.484 28.526 209.156 27.5625C207.828 26.599 206.096 26.1172 203.961 26.1172C200.81 26.1172 198.518 27.1979 197.086 29.3594C195.68 31.5208 194.977 34.763 194.977 39.0859Z" fill="white"/>
<path d="M286.305 16.5078C291.253 16.5078 294.99 17.7839 297.516 20.3359C300.068 22.862 301.344 26.9245 301.344 32.5234V61H289.391V35.4922C289.391 32.3672 288.857 30.0104 287.789 28.4219C286.721 26.8333 285.068 26.0391 282.828 26.0391C279.677 26.0391 277.438 27.1719 276.109 29.4375C274.781 31.6771 274.117 34.8932 274.117 39.0859V61H262.203V35.4922C262.203 33.4089 261.969 31.6641 261.5 30.2578C261.031 28.8516 260.315 27.7969 259.352 27.0938C258.388 26.3906 257.151 26.0391 255.641 26.0391C253.427 26.0391 251.682 26.599 250.406 27.7188C249.156 28.8125 248.258 30.4401 247.711 32.6016C247.19 34.737 246.93 37.3542 246.93 40.4531V61H235.016V17.3281H244.117L245.719 22.9141H246.383C247.268 21.4036 248.375 20.1797 249.703 19.2422C251.057 18.3047 252.542 17.6146 254.156 17.1719C255.771 16.7292 257.411 16.5078 259.078 16.5078C262.281 16.5078 264.99 17.0286 267.203 18.0703C269.443 19.112 271.161 20.7266 272.359 22.9141H273.414C274.716 20.6745 276.552 19.0469 278.922 18.0312C281.318 17.0156 283.779 16.5078 286.305 16.5078Z" fill="white"/>
<path d="M331.617 16.5078C335.654 16.5078 339.13 17.2891 342.047 18.8516C344.964 20.388 347.216 22.6276 348.805 25.5703C350.393 28.513 351.188 32.1068 351.188 36.3516V42.1328H323.023C323.154 45.4922 324.156 48.1354 326.031 50.0625C327.932 51.9635 330.562 52.9141 333.922 52.9141C336.708 52.9141 339.26 52.6276 341.578 52.0547C343.896 51.4818 346.279 50.6224 348.727 49.4766V58.6953C346.565 59.763 344.299 60.5443 341.93 61.0391C339.586 61.5339 336.734 61.7812 333.375 61.7812C329 61.7812 325.12 60.974 321.734 59.3594C318.375 57.7448 315.732 55.2839 313.805 51.9766C311.904 48.6693 310.953 44.5026 310.953 39.4766C310.953 34.3724 311.812 30.1276 313.531 26.7422C315.276 23.3307 317.698 20.7786 320.797 19.0859C323.896 17.3672 327.503 16.5078 331.617 16.5078ZM331.695 24.9844C329.378 24.9844 327.451 25.7266 325.914 27.2109C324.404 28.6953 323.531 31.026 323.297 34.2031H340.016C339.99 32.4323 339.664 30.8568 339.039 29.4766C338.44 28.0964 337.529 27.0026 336.305 26.1953C335.107 25.388 333.57 24.9844 331.695 24.9844Z" fill="white"/>
</g>
</svg>
